<?xml version="1.0" standalone="no"?>
<!DOCTYPE svg PUBLIC "-//W3C//DTD SVG 1.1//EN" "http://www.w3.org/Graphics/SVG/1.1/DTD/svg11.dtd" >
<svg xmlns="http://www.w3.org/2000/svg">
<metadata>Generated by IcoMoon</metadata>
<defs>
<font id="icomoon" horiz-adv-x="1024">
<font-face units-per-em="1024" ascent="960" descent="-64" />
<missing-glyph horiz-adv-x="1024" />
<glyph unicode="&#x20;" horiz-adv-x="512" d="" />
<glyph unicode="&#xe900;" glyph-name="repeat" horiz-adv-x="1086" d="M38.661 468.848v270.473l480.23 7.8v154.621l526.043-439.306zM39.148 385.693h757.749l-460.981-383.542v180.747h-291.368z" />
<glyph unicode="&#xe901;" glyph-name="portal" horiz-adv-x="1086" d="M545.415 934.385l423.259 5.708v-479.441l-114.96 142.688-203.786-205.467-214.244 228.297 203.786 182.638zM522.212-31.422l-423.259-5.708v479.441l114.96-142.688 203.786 205.467 214.244-228.297-203.786-182.638z" />
<glyph unicode="&#xe902;" glyph-name="bookmark2" horiz-adv-x="1086" d="M158.008-43.667l6.159 984.088h757.502l-6.159-989.289-326.404 213.482v244.722c220.32 107.544 344.891 233.867 221.711 354.057-123.187 120.2-264.821-26.034-270.983-93.722-6.159 57.275-133.45 203.484-264.821 93.722-131.357-109.767 59.779-281.033 209.387-354.057v-244.722z" />
<glyph unicode="&#xe903;" glyph-name="options" d="M486.364 62.892c-37.385 13.188-56.824 43.68-53.9 84.552 1.999 27.941 13.103 47.071 36.409 62.724 17.26 11.592 48.248 15.582 68.669 8.842 17.17-5.667 41.147-28.171 47.869-44.927 26.374-65.751-34.411-133.987-99.049-111.189zM491.585 367.749c-19.554 4.716-31.017 11.766-44.231 27.203-15.613 18.241-20.086 32.499-18.417 58.716 1.030 16.16 3.781 25.199 11.445 37.597 34.569 55.914 120.458 48.945 145.854-11.836 6.616-15.835 6.328-46.462-0.595-63.057-14.805-35.493-57.335-57.479-94.058-48.621zM491.585 675.281c-26.34 6.352-48.256 24.415-58.016 47.813-6.452 15.47-6.799 46.454-0.683 61.049 16.011 38.207 61.013 58.243 104.003 46.3 16.98-4.716 41.58-27.346 48.484-44.6 7.388-18.464 7.537-44.638 0.353-61.798-14.931-35.661-57.355-57.638-94.139-48.767z" />
<glyph unicode="&#xe904;" glyph-name="file" horiz-adv-x="1086" d="M191.732 855.37l2.546-848.649 726.405-1.8v619.592l-239.73 4.339-3.392 226.508zM765.458 855.37l-0.732-147.036 155.967-1.142v1.941l-153.185 146.243z" />
<glyph unicode="&#xe905;" glyph-name="home" d="M1024 369.556l-512 397.426-512-397.428v162.038l512 397.426 512-397.428zM896 384v-384h-256v256h-256v-256h-256v384l384 288z" />
<glyph unicode="&#xe906;" glyph-name="home3" d="M1024 352l-192 192v288h-128v-160l-192 192-512-512v-32h128v-320h320v192h128v-192h320v320h128z" />
<glyph unicode="&#xe907;" glyph-name="pencil" d="M864 960c88.364 0 160-71.634 160-160 0-36.020-11.91-69.258-32-96l-64-64-224 224 64 64c26.742 20.090 59.978 32 96 32zM64 224l-64-288 288 64 592 592-224 224-592-592zM715.578 596.422l-448-448-55.156 55.156 448 448 55.156-55.156z" />
<glyph unicode="&#xe908;" glyph-name="trophy2" horiz-adv-x="1086" d="M961.701 939.247c-7.906 0.21-12.791-0.786-12.791-0.786-54.626-2.748-75.088-31.145-105.228-85.187h-591.303c-30.139 54.042-50.602 82.439-105.228 85.187 0 0-4.886 0.99-12.791 0.779-23.717-0.631-74.63-12.068-102.466-93.484-31.234-91.989 58.372-339.47 215.471-458.516 0 0 82.256-72.421 185.414-97.709 123.071-24.481 85.638-182.644 82.681-207.957l-37.582-10.017-40.087-42.6-47.605-25.052-2.506-35.075h320.71l-2.506 35.075-47.605 25.052-40.087 42.6-37.582 10.017c-2.957 25.317-40.39 183.477 82.681 207.957 103.153 25.289 185.401 97.709 185.401 97.709 157.098 119.039 246.711 366.524 215.484 458.516-27.837 81.416-78.749 92.86-102.466 93.491zM156.5 863.15c21.238 0.021 44.475-10.855 63.306-34.929-4.773-27.609-92.418-133.073-17.535-345.762-47.886 32.85-107.708 191.823-115.251 265.588-4.478 44.918 12.196 89.932 38.677 106.424 9.103 5.668 19.678 8.668 30.803 8.68zM939.575 863.15c11.125-0.010 21.7-3.011 30.803-8.68 26.481-16.49 43.155-61.506 38.677-106.424-7.543-73.757-67.365-232.736-115.251-265.588 74.884 212.689-12.769 318.149-17.542 345.762 18.83 24.073 42.074 34.951 63.313 34.929zM265.783 809.371h31.489c32.943-57.131 65.924-114.242 98.899-171.36-21.884-32.188-33.587-70.208-33.597-109.13 0-107.248 86.942-194.189 194.189-194.189 107.249 0 194.189 86.941 194.189 194.189-0.082 41.508-13.459 81.901-38.173 115.251 31.977 54.791 63.571 109.783 94.377 165.237h32.483c188.118-444.644-292.629-513.053-292.629-513.053s-490.25 104.514-281.228 513.053zM340.711 809.371h118.731c17.725-30.523 35.38-61.083 53.027-91.65-34.219-7.956-65.631-25.044-90.904-49.446-27.305 46.832-54.21 93.887-80.854 141.095zM502.893 809.371h100.895c-17.253-28.595-33.979-57.501-50.676-86.424-0.266-0.009-0.528-0.018-0.793-0.027-16.743 28.665-33.080 57.559-49.425 86.45zM645.106 809.371h120.982c-27.114-45.094-53.197-90.8-79.503-136.363-26.113 23.58-58.141 39.626-92.664 46.416 17.49 29.741 34.341 59.843 51.186 89.951zM559.18 697.378c92.843 0.001 168.11-75.267 168.097-168.11-0.001-92.842-75.26-168.11-168.097-168.097-92.841 0.001-168.097 75.263-168.097 168.097-0.001 92.842 75.26 168.11 168.097 168.11zM559.18 665.895c-75.458-0.001-136.623-61.171-136.623-136.623 0.001-75.456 61.171-136.623 136.623-136.623 75.458-0.001 136.623 61.171 136.623 136.623 0.001 75.459-61.17 136.636-136.623 136.623zM563.198 655.811l37.239-77.213 84.723-13.101-61.928-59.281 13.725-84.615-75.512 40.579-76.238-39.201 15.257 84.354-60.846 60.397 84.952 11.555z" />
<glyph unicode="&#xe909;" glyph-name="trophy1" horiz-adv-x="1086" d="M127.96 928.115c-23.717-0.631-74.63-12.074-102.466-93.491-31.234-91.989 58.372-339.47 215.471-458.503 0 0 82.256-72.427 185.414-97.716 123.071-24.481 85.638-182.644 82.681-207.957l-37.582-10.017-40.087-42.594-47.605-25.059-2.506-35.075h320.71l-2.506 35.075-47.605 25.059-40.087 42.594-37.582 10.017c-2.957 25.317-40.39 183.477 82.681 207.957 103.153 25.289 185.414 97.716 185.414 97.716 157.098 119.039 246.711 366.511 215.471 458.503-37.115 108.554-115.258 92.711-115.258 92.711-54.626-2.748-75.088-31.152-105.228-85.194h-6.806c-36.14-65.246-73.287-129.903-110.884-194.319 27.903-37.653 43.008-83.253 43.097-130.122 0-121.090-98.166-219.254-219.254-219.254-121.088 0.002-219.254 98.161-219.254 219.254 0.012 43.946 13.229 86.871 37.938 123.213-38.723 67.072-77.461 134.139-116.144 201.235-30.139 54.042-50.602 82.445-105.228 85.194 0 0-4.886 0.99-12.791 0.779zM245.979 842.142h49.124c-0.153 0.272-0.311 0.541-0.464 0.813zM295.103 842.142c31.513-55.911 63.359-111.623 95.688-167.070 28.534 27.551 64.007 46.846 102.641 55.828-21.42 37.101-42.838 74.202-64.367 111.24zM429.060 842.142h49.15c-0.065 0.111-0.13 0.219-0.189 0.329l-49.567 0.712c0.202-0.347 0.403-0.694 0.605-1.041zM478.21 842.142c19.925-35.208 39.804-70.436 60.208-105.368 0.298 0.012 0.594 0.013 0.893 0.026 20.361 35.27 40.733 70.536 61.888 105.342h-59.578zM601.201 842.142h46.349c0.196 0.352 0.394 0.703 0.592 1.055l-46.013 0.49c-0.312-0.513-0.615-1.032-0.927-1.545zM647.55 842.142c-20.471-36.583-40.898-73.186-62.15-109.325 38.978-7.667 75.139-25.779 104.623-52.403 31.209 54.059 62.091 108.309 94.39 161.727zM784.42 842.142h46.060c0.117 0.211 0.239 0.42 0.356 0.632l-45.751 0.484c-0.224-0.37-0.441-0.745-0.666-1.115zM150.098 852.025c21.239 0.022 44.483-10.862 63.313-34.935-4.773-27.609-92.426-133.073-17.542-345.762-47.886 32.85-107.708 191.823-115.251 265.588-4.478 44.918 12.196 89.932 38.677 106.424 9.103 5.668 19.678 8.675 30.803 8.687zM933.172 852.025c11.125-0.012 21.7-3.018 30.803-8.687 26.481-16.49 43.155-61.506 38.677-106.424-7.543-73.757-67.365-232.736-115.251-265.588 74.884 212.689-12.769 318.149-17.542 345.762 18.83 24.073 42.074 34.957 63.313 34.935zM546.185 707.927c-104.823-0.001-189.795-84.979-189.795-189.808 0.001-104.822 84.974-189.795 189.795-189.795 104.823-0.001 189.795 84.973 189.795 189.795 0.001 104.825-84.971 189.808-189.795 189.808zM546.185 672.387c85.196 0.001 154.264-69.068 154.264-154.264s-69.069-154.251-154.264-154.251c-85.194 0.001-154.251 69.063-154.251 154.251-0.001 85.195 69.061 154.264 154.251 154.264zM550.72 661l-43.614-86.403-95.909-13.047 68.694-68.19-17.226-95.245 86.074 44.259 85.26-45.818-15.491 95.546 69.917 66.927-95.654 14.787z" />
<glyph unicode="&#xe90a;" glyph-name="doing" horiz-adv-x="1086" d="M536.635 944.442c-198.652 0-359.695-161.035-359.695-359.695 0-164.028 101.965-245.285 120.735-259.546 36.633-27.838 62.762-77.47 66.349-115.325 0 0 125.345-40.125 189.093-39.027 63.749 1.099 160.365 40.775 160.365 40.775-1.566 32.044 28.932 85.051 58.032 104.596 31.569 21.202 124.811 106.763 124.811 268.528 0 198.652-161.042 359.695-359.695 359.695zM682.986 877.852c32.502 0 58.851-31.252 58.851-69.803v0c0-38.551-26.348-69.803-58.851-69.803v0c-32.502 0-58.851 31.252-58.851 69.803v0c0 38.551 26.348 69.803 58.851 69.803v0zM569.99 796.877l103.581-89.348 50.489-38.704 85.309 26.282c36.451 11.53 39.027-33.353 24.448-65.059l-118.362-33.141-86.768 43.251-72.82-91.779 124.763-122.858 12.207-194.614c-43.743-20.177-72.847 8.7-72.847 8.7l-8.606 158.284-109.319 88.594-120.856-138.512-147.393 83.675c-29.162 43.238 20.732 66.47 20.732 66.47l110.636-58.637 161.372 279.507-73.342-23.42-52.718-57.843c-38.883-17.295-51.785 25.126-51.785 25.126l85.657 91.645 135.616 42.378zM370.251 175.246c57.787-15.446 114.361-27.569 172.15-27.197 58.271 0.375 117.756 13.368 176.020 27.197v-85.71c-111.529-48.882-228.525-38.78-348.17 0zM722.361 58.278c0-39.080-33.677-75.193-88.346-94.733-54.668-19.541-122.021-19.541-176.692 0-54.668 19.541-88.346 55.652-88.346 94.733 0 0 91.457-23.66 176.31-24.857 84.847-1.197 177.075 24.857 177.075 24.857z" />
<glyph unicode="&#xe90b;" glyph-name="ribbon3" horiz-adv-x="1086" d="M656.358 914.744c-36.936-60.677-72.44-122.186-107.951-183.698-0.513-0.012-1.028-0.039-1.541-0.052-35.181 60.226-69.454 120.969-103.804 181.669l-398.817-0.567c66.483-115.316 133.060-230.577 199.623-345.853-42.466-62.46-65.182-136.233-65.203-211.766-0.001-208.113 168.708-376.82 376.82-376.82s376.82 168.708 376.82 376.82c-0.153 80.546-26.112 158.919-74.067 223.635 64.827 111.079 128.889 222.556 191.199 335.063zM559.444 656.241c166.667 0.002 301.781-135.115 301.781-301.781-0.002-166.667-135.115-301.768-301.781-301.768-166.667 0.002-301.768 135.102-301.768 301.768-0.002 166.667 135.102 301.768 301.768 301.781zM563.182 617.519l-80.218-158.893-176.378-23.995 126.33-125.398-31.681-175.156 158.294 81.396 156.786-84.256-28.495 175.702 128.583 123.084-175.91 27.193z" />
<glyph unicode="&#xe90c;" glyph-name="ribbon2" horiz-adv-x="1086" d="M802.978 639.212c-50.672 45.757-112.825 76.886-179.81 90.064 36.877 62.709 72.313 126.231 107.836 189.704l-79.084 0.84c-36.936-60.677-72.44-122.186-107.951-183.698-0.513-0.017-1.028-0.036-1.541-0.056-35.179 60.226-69.453 120.969-103.804 181.669l-85.183 1.224c37.353-64.251 74.502-128.619 111.662-192.98-66.399-15.438-127.368-48.6-176.404-95.95-55.831 95.758-110.837 191.979-165.25 288.534l-83.631-1.396c66.483-115.316 133.060-230.577 199.623-345.853-42.466-62.46-65.182-136.233-65.203-211.766-0.001-208.113 168.708-376.82 376.82-376.82s376.82 168.708 376.82 376.82c-0.153 80.546-26.112 158.919-74.067 223.635 64.827 111.079 128.889 222.556 191.199 335.063l-78.63 0.829c-55.933-92.426-109.367-186.324-163.378-279.875zM555.006 661.328c166.667 0.002 301.781-135.115 301.781-301.781-0.002-166.667-135.115-301.768-301.781-301.768-166.667 0.002-301.768 135.102-301.768 301.768-0.002 166.667 135.102 301.768 301.768 301.781zM558.744 622.606l-80.218-158.893-176.378-23.995 126.33-125.398-31.681-175.156 158.294 81.396 156.786-84.256-28.495 175.702 128.583 123.084-175.91 27.193z" />
<glyph unicode="&#xe90d;" glyph-name="image" d="M959.884 832c0.040-0.034 0.082-0.076 0.116-0.116v-767.77c-0.034-0.040-0.076-0.082-0.116-0.116h-895.77c-0.040 0.034-0.082 0.076-0.114 0.116v767.772c0.034 0.040 0.076 0.082 0.114 0.114h895.77zM960 896h-896c-35.2 0-64-28.8-64-64v-768c0-35.2 28.8-64 64-64h896c35.2 0 64 28.8 64 64v768c0 35.2-28.8 64-64 64v0zM832 672c0-53.020-42.98-96-96-96s-96 42.98-96 96 42.98 96 96 96 96-42.98 96-96zM896 128h-768v128l224 384 256-320h64l224 192z" />
<glyph unicode="&#xe90e;" glyph-name="images" horiz-adv-x="1152" d="M1088 832h-64v64c0 35.2-28.8 64-64 64h-896c-35.2 0-64-28.8-64-64v-768c0-35.2 28.8-64 64-64h64v-64c0-35.2 28.8-64 64-64h896c35.2 0 64 28.8 64 64v768c0 35.2-28.8 64-64 64zM128 768v-640h-63.886c-0.040 0.034-0.082 0.076-0.114 0.116v767.77c0.034 0.040 0.076 0.082 0.114 0.114h895.77c0.040-0.034 0.082-0.076 0.116-0.116v-63.884h-768c-35.2 0-64-28.8-64-64v0zM1088 0.116c-0.034-0.040-0.076-0.082-0.116-0.116h-895.77c-0.040 0.034-0.082 0.076-0.114 0.116v767.77c0.034 0.040 0.076 0.082 0.114 0.114h895.77c0.040-0.034 0.082-0.076 0.116-0.116v-767.768zM960 608c0-53.020-42.98-96-96-96s-96 42.98-96 96 42.98 96 96 96 96-42.98 96-96zM1024 64h-768v128l224 384 256-320h64l224 192z" />
<glyph unicode="&#xe90f;" glyph-name="camera" d="M304 352c0-114.876 93.124-208 208-208s208 93.124 208 208-93.124 208-208 208-208-93.124-208-208zM960 704h-224c-16 64-32 128-96 128h-256c-64 0-80-64-96-128h-224c-35.2 0-64-28.8-64-64v-576c0-35.2 28.8-64 64-64h896c35.2 0 64 28.8 64 64v576c0 35.2-28.8 64-64 64zM512 68c-156.85 0-284 127.148-284 284 0 156.85 127.15 284 284 284 156.852 0 284-127.15 284-284 0-156.852-127.146-284-284-284zM960 512h-128v64h128v-64z" />
<glyph unicode="&#xe910;" glyph-name="ribbon" horiz-adv-x="1086" d="M657.021 914.74c-36.936-60.677-72.443-122.189-107.955-183.698-0.513-0.017-1.026-0.034-1.538-0.053-35.179 60.226-69.451 120.967-103.803 181.669l-85.187 1.222c37.353-64.251 74.505-128.617 111.663-192.98-66.399-15.438-127.366-48.597-176.404-95.949-55.831 95.758-110.844 191.979-165.263 288.547l-83.629-1.397c66.483-115.316 133.060-230.577 199.623-345.853-42.466-62.46-65.179-136.233-65.2-211.766-0.001-208.113 168.708-376.82 376.82-376.82s376.82 168.708 376.82 376.82c-0.153 80.546-26.113 158.919-74.068 223.635 64.827 111.079 128.89 222.556 191.199 335.063l-78.63 0.833c-55.933-92.426-109.368-186.324-163.378-279.875-50.672 45.757-112.823 76.888-179.81 90.064 36.877 62.709 72.31 126.23 107.834 189.704zM560.849 681.419c180.161 0.002 326.209-146.048 326.196-326.209-0.002-180.161-146.048-326.196-326.196-326.196-180.161 0.002-326.196 146.035-326.196 326.196-0.002 180.161 146.048 326.209 326.196 326.209zM560.849 620.338c-146.425-0.001-265.12-118.704-265.12-265.133 0.001-146.425 118.7-265.12 265.12-265.12 146.425-0.002 265.12 118.697 265.133 265.12 0.002 146.425-118.703 265.133-265.133 265.133zM568.649 600.768l72.261-149.831 164.405-25.415-120.169-115.029 26.632-164.21-146.529 78.744-147.946-76.070 29.607 163.69-118.066 117.192 164.834 22.426z" />
<glyph unicode="&#xe911;" glyph-name="move" horiz-adv-x="1086" d="M651.42 70.41c87.803 87.746 104.829 106.043 101.438 109.014-0.263 0.23-32.333 0.876-71.264 1.435l-70.786 1.016v200.876l201.838 0.99v-70.863c0-63.208 0.331-70.99 3.063-72.038 2.223-0.853 31.328 27.086 106.18 101.928 56.715 56.707 103.116 103.964 103.116 105.016 0 2.682-205.152 207.586-207.84 207.586-1.206 0-2.716-1.362-3.355-3.026s-1.161-33.956-1.161-71.759v-68.734l-201.838 0.991v200.876l70.377 0.502c62.237 0.444 70.512 0.853 71.544 3.541 0.84 2.192-27.317 31.526-100.98 105.2-56.18 56.189-103.444 102.16-105.030 102.16s-48.849-45.971-105.030-102.16c-73.663-73.672-101.822-103.007-100.98-105.2 1.031-2.687 9.306-3.097 71.544-3.541l70.377-0.502v-200.876l-201.838-0.991v70.863c0 63.207-0.331 70.99-3.062 72.038-2.222 0.853-30.862-26.591-104.384-100.022-55.726-55.658-102.218-102.814-103.314-104.788-1.74-3.136 11.122-16.713 101.305-106.942 75.309-75.347 104.132-103.030 106.377-102.169 2.752 1.056 3.078 8.686 3.078 72.044v70.863l201.838-0.99 0.496-100.918 0.495-100.918h-68.734c-37.803 0-70.095-0.522-71.759-1.161s-3.026-2.587-3.026-4.329c0-3.893 202.73-206.867 206.624-206.867 1.532 0 48.648 45.832 104.702 101.851z" />
<glyph unicode="&#xe912;" glyph-name="attach-in" horiz-adv-x="1086" d="M975.716 679.839l-2.378-134.621 94.966 2.802v-314.132l-94.966 2.802 2.378-134.621-239.782 288.898zM536.584 930.205l-1.8-0.007-0.638-167.46 137.078-1.303v2.21l-134.634 166.563zM30.577 930.199l2.237-966.551 638.404-2.049v767.46h-163.027l-1.075 201.157-476.535 0.007zM526.34 664.117c4.763-0.038 9.33-0.422 10.037-1.129 0.609-0.609 2.073-1.109 3.252-1.109s6.524-1.113 11.884-2.472c37.902-9.611 67.799-42.759 73.454-81.452 1.841-12.592 0.709-31.941-2.506-42.861-3.041-10.328-7.583-20.172-13.443-29.15-2.985-4.573-50.939-53.209-170.008-172.426-173.115-173.323-171.607-171.88-184.14-176.326-18.534-6.587-38.108-5.642-55.155 2.66-11.577 5.638-22.776 16.719-28.452 28.155-10.205 20.564-9.491 44.675 1.901 64.254 4.365 7.501 240.042 243.916 246.074 246.854 16.3 7.918 33.63-8.864 26.153-25.328-1.354-2.982-33.704-35.937-119.45-121.693-128.155-128.166-122.318-121.806-122.343-133.281-0.014-7.854 2.403-14.026 7.484-19.107 6.045-6.045 11.22-7.831 21.048-7.262 6.444 0.373 8.595 0.938 11.938 3.151 2.242 1.483 77.403 76.065 167.044 165.744 132.826 132.891 163.664 164.223 166.693 169.397 13.375 22.778 11.204 50.556-5.563 71.139-10.855 13.326-27.197 20.551-46.504 20.551-11.213 0-18.713-1.718-29.109-6.664-7.278-3.462-10.421-6.538-190.237-186.129-109.935-109.795-185.18-185.7-188.703-190.328-6.818-8.978-12.631-20.595-15.881-31.75-2.035-6.982-2.294-9.886-2.244-25.159 0.052-15.944 0.266-17.947 2.775-26.147 18.706-61.155 88.688-86.663 142.694-52.005 3.454 2.216 66.221 64.195 172.66 170.489 154.407 154.186 167.577 167.083 171.672 168.162 9.829 2.586 19.714-1.118 23.667-8.868 2.547-4.993 2.596-12.969 0.108-18.287-2.146-4.584-329.186-331.735-339.002-339.119-17.845-13.419-35.707-21.153-59.107-25.576-21.164-4.001-21.091-3.994-28.21-2.828l-0.007-0.007c-29.154 4.773-39.96 7.925-56.247 16.439-37.21 19.454-62.795 55.031-69.667 96.868-1.876 11.418-1.329 38.326 0.988 48.5 4.437 19.493 12.553 37.327 23.964 52.689 4.734 6.373 57.067 59.362 190.64 193.019 163.079 163.183 185.102 184.881 192.811 189.873 11.344 7.366 22.163 11.978 34.015 14.505 5.274 1.124 10.582 2.508 11.797 3.070 1.491 0.689 6.449 0.999 11.213 0.961z" />
<glyph unicode="&#xe913;" glyph-name="attach-out" horiz-adv-x="1086" d="M828.524 679.839l2.378-134.621-94.966 2.802v-314.132l94.966 2.802-2.378-134.621 239.782 288.898zM536.59 930.205l-1.8-0.007-0.638-167.464 137.071-1.303v2.21l-134.633 166.563zM30.579 930.198l2.237-966.55 638.405-2.049v767.462h-163.024l-1.075 201.153-476.533 0.007zM526.34 664.122c4.763-0.038 9.33-0.422 10.037-1.129 0.609-0.609 2.073-1.109 3.252-1.109s6.524-1.113 11.884-2.472c37.902-9.611 67.8-42.759 73.454-81.452 1.841-12.592 0.71-31.941-2.506-42.862-3.041-10.328-7.583-20.172-13.443-29.15-2.985-4.573-50.938-53.208-170.003-172.421-173.116-173.326-171.606-171.877-184.136-176.332-18.534-6.587-38.108-5.642-55.155 2.66-11.577 5.638-22.776 16.719-28.451 28.156-10.205 20.565-9.491 44.675 1.901 64.253 4.365 7.501 240.042 243.915 246.078 246.852 16.3 7.918 33.63-8.864 26.154-25.327-1.354-2.982-33.703-35.938-119.45-121.692-128.156-128.166-122.318-121.806-122.343-133.281-0.014-7.854 2.403-14.026 7.484-19.106 6.045-6.045 11.22-7.831 21.048-7.262 6.444 0.373 8.595 0.938 11.938 3.151 2.242 1.484 77.403 76.065 167.038 165.744 132.827 132.885 163.66 164.228 166.69 169.397 13.375 22.779 11.204 50.556-5.563 71.139-10.855 13.326-27.197 20.551-46.504 20.551-11.213 0-18.713-1.718-29.11-6.664-7.278-3.462-10.421-6.538-190.238-186.131-109.936-109.795-185.182-185.698-188.697-190.331-6.818-8.978-12.631-20.595-15.882-31.75-2.035-6.982-2.294-9.886-2.244-25.159 0.052-15.943 0.266-17.948 2.775-26.147 18.707-61.154 88.689-86.663 142.699-52.005 3.454 2.216 66.221 64.195 172.662 170.484 154.407 154.191 167.571 167.086 171.668 168.163 9.829 2.587 19.714-1.118 23.668-8.868 2.547-4.993 2.596-12.969 0.107-18.287-2.146-4.584-329.184-331.737-338.998-339.125-17.844-13.419-35.707-21.153-59.107-25.576-21.163-4.001-21.091-3.994-28.21-2.828l-0.007-0.007c-29.153 4.773-39.959 7.925-56.246 16.439-37.21 19.454-62.795 55.031-69.667 96.868-1.876 11.418-1.329 38.325 0.988 48.5 4.437 19.493 12.553 37.327 23.964 52.689 4.734 6.373 57.068 59.362 190.634 193.018 163.079 163.182 185.103 184.876 192.804 189.874 11.344 7.366 22.163 11.978 34.014 14.504 5.274 1.124 10.582 2.508 11.797 3.070 1.491 0.689 6.449 0.999 11.213 0.961z" />
<glyph unicode="&#xe914;" glyph-name="video" d="M384 672c0 88.366 71.634 160 160 160s160-71.634 160-160c0-88.366-71.634-160-160-160s-160 71.634-160 160zM0 672c0 88.366 71.634 160 160 160s160-71.634 160-160c0-88.366-71.634-160-160-160s-160 71.634-160 160zM768 352v96c0 35.2-28.8 64-64 64h-640c-35.2 0-64-28.8-64-64v-320c0-35.2 28.8-64 64-64h640c35.2 0 64 28.8 64 64v96l256-160v448l-256-160zM640 192h-512v192h512v-192z" />
<glyph unicode="&#xe915;" glyph-name="hold" horiz-adv-x="1086" d="M264.912 84.414c-105.906 137.468-110.887 116.282-151.482 266.771 0.832 35.256-28.935 194.384-28.935 194.384-22.882 41.021 127.589 47.848 153.341-30.099 29.596-50.91 29.948-132.865 44.249-144.592-0.499 9.375 38.422-39.912 33.111 30.554-8.448 112.102-29.039 285.908-29.039 285.908-29.514 239.652 142.889 192.993 142.889 150.026 0-36.187 10.86-178.653 19.042-349.662 0.656 10.654 38.872-4.778 39.372 6.63 4.529 103.448-4.845 278.796-4.234 372.374 0.678 103.9 155.369 93.799 143.929 0.037 0 0 25.709-269.306 14.268-323.999 2.089 13.316 33.18-20.402 36.301 5.567 9.696 80.688 14.189 216.94 7.698 290.835 5.721 102.511 170.515 90.664 144.774-42.165 4.020-61.837 0.23-301.664 0.23-301.664 2.242 7.794 39.409-21.443 41.217-13.154 23.565 108.037 6.806 261.207 25.402 277.535 157.319 17.581 78.248-183.685 98.27-318.474 6.603-58.224-20.107-271.906-88.554-377.054-66.924-88.531-136.766-105.7-296.373-103.968s-239.561-13.254-345.476 124.219z" />
<glyph unicode="&#xe916;" glyph-name="check-all" d="M61.426 893.953v-428.174h428.174v428.174zM332.871 812.659h81.906l-139.926-263.51h-55.744l-80.772 121.248 83.051 3.232 19.338-82.449zM537.459 891.435v-428.174h428.174v428.174zM808.903 810.141h81.906l-139.926-263.51h-55.744l-80.772 121.248 83.051 3.232 19.338-82.449zM56.389 433.035v-428.174h428.174v428.174zM327.834 351.742h81.906l-139.926-263.51h-55.744l-80.772 121.248 83.051 3.232 19.338-82.449zM532.419 430.522v-428.174h428.174v428.174zM803.864 349.228h81.906l-139.926-263.51h-55.744l-80.772 121.248 83.051 3.232 19.338-82.449z" />
<glyph unicode="&#xe917;" glyph-name="check-none" d="M55.516 902.254v-428.169h428.169v428.169zM218.557 813.587l50.096-93.52 50.096 93.52 71.805-1.671c-20.215-41.104-40.98-82.793-60.119-124.412 19.139-41.619 39.904-83.309 60.119-124.412l-71.805-1.665-50.096 93.514-50.096-93.514-71.812 1.665c20.215 41.104 40.98 82.793 60.119 124.412-19.139 41.619-39.904 83.309-60.119 124.412zM545.53 902.254v-428.169h428.169v428.169zM708.571 813.587l50.096-93.52 50.096 93.52 71.805-1.671c-20.215-41.104-40.98-82.793-60.119-124.412 19.139-41.619 39.904-83.309 60.119-124.412l-71.805-1.665-50.096 93.514-50.096-93.514-71.812 1.665c20.215 41.104 40.98 82.793 60.119 124.412-19.139 41.619-39.904 83.309-60.119 124.412zM55.516 421.801v-428.169h428.169v428.169zM218.557 333.133l50.096-93.52 50.096 93.52 71.805-1.671c-20.215-41.104-40.98-82.793-60.119-124.412 19.139-41.619 39.904-83.309 60.119-124.412l-71.805-1.665-50.096 93.514-50.096-93.514-71.812 1.665c20.215 41.104 40.98 82.793 60.119 124.412-19.139 41.619-39.904 83.309-60.119 124.412zM545.53 421.801v-428.169h428.169v428.169zM708.571 333.133l50.096-93.52 50.096 93.52 71.805-1.671c-20.215-41.104-40.98-82.793-60.119-124.412 19.139-41.619 39.904-83.309 60.119-124.412l-71.805-1.665-50.096 93.514-50.096-93.514-71.812 1.665c20.215 41.104 40.98 82.793 60.119 124.412-19.139 41.619-39.904 83.309-60.119 124.412z" />
<glyph unicode="&#xe918;" glyph-name="check-all2" d="M104.077 887.913v-750.542l63.242 1.833 1.781 683.371 679.439-2.142 2.362 67.495h-746.841zM216.982 777.397v-750.542h746.841v750.542h-746.841zM282.005 712.053h616.795v-619.868h-616.795v619.868zM704.59 658.97l-178.074-428.003-37.372 159.323-160.483-6.247 156.082-234.295h107.724l270.395 509.216h-158.269z" />
<glyph unicode="&#xe919;" glyph-name="check-none2" d="M95.992 870.894v-750.542l63.242 1.826 1.781 683.371 679.439-2.142 2.362 67.488h-746.841zM208.897 760.378v-750.542h746.841v750.542h-746.841zM273.92 695.034h616.795v-619.868h-616.795v619.868zM485.933 613.002l-133.136-3.098c37.478-76.201 75.973-153.492 111.451-230.651-35.482-77.156-73.977-154.447-111.451-230.651l133.136-3.085 92.873 173.365 92.873-173.365 133.116 3.085c-37.478 76.201-75.973 153.492-111.451 230.651 35.482 77.156 73.977 154.447 111.451 230.651l-133.116 3.098-92.873-173.379-92.873 173.379z" />
<glyph unicode="&#xe91a;" glyph-name="office" d="M0-64h512v1024h-512v-1024zM320 832h128v-128h-128v128zM320 576h128v-128h-128v128zM320 320h128v-128h-128v128zM64 832h128v-128h-128v128zM64 576h128v-128h-128v128zM64 320h128v-128h-128v128zM576 640h448v-64h-448zM576-64h128v256h192v-256h128v576h-448z" />
<glyph unicode="&#xe91b;" glyph-name="connection" horiz-adv-x="1280" d="M640 384c105.87 0 201.87-43.066 271.402-112.598l-90.468-90.468c-46.354 46.356-110.356 75.066-180.934 75.066s-134.578-28.71-180.934-75.066l-90.468 90.468c69.532 69.532 165.532 112.598 271.402 112.598zM187.452 452.548c120.88 120.88 281.598 187.452 452.548 187.452s331.668-66.572 452.55-187.452l-90.51-90.508c-96.706 96.704-225.28 149.96-362.040 149.96-136.762 0-265.334-53.256-362.038-149.962l-90.51 90.51zM988.784 825.562c106.702-45.132 202.516-109.728 284.782-191.996v0l-90.508-90.508c-145.056 145.056-337.92 224.942-543.058 224.942-205.14 0-398-79.886-543.058-224.942l-90.51 90.51c82.268 82.266 178.082 146.862 284.784 191.994 110.504 46.738 227.852 70.438 348.784 70.438s238.278-23.7 348.784-70.438zM576 64c0 35.346 28.654 64 64 64s64-28.654 64-64c0-35.346-28.654-64-64-64s-64 28.654-64 64z" />
<glyph unicode="&#xe91c;" glyph-name="podcast" d="M1024 448c0 282.77-229.23 512-512 512s-512-229.23-512-512c0-220.054 138.836-407.664 333.686-480.068l-13.686-31.932h384l-13.686 31.932c194.85 72.404 333.686 260.014 333.686 480.068zM486.79 325.174c-22.808 9.788-38.79 32.436-38.79 58.826 0 35.346 28.654 64 64 64s64-28.654 64-64c0-26.39-15.978-49.044-38.786-58.834l-25.214 58.834-25.21-58.826zM538.268 322.708c58.092 12.118 101.732 63.602 101.732 125.292 0 70.694-57.306 128-128 128-70.692 0-128-57.306-128-128 0-61.692 43.662-113.122 101.76-125.228l-74.624-174.122c-91.23 39.15-155.136 129.784-155.136 235.35 0 141.384 114.616 268 256 268s256-126.616 256-268c0-105.566-63.906-196.2-155.136-235.35l-74.596 174.058zM688.448-27.708l-73.924 172.486c126.446 42.738 217.476 162.346 217.476 303.222 0 176.73-143.268 320-320 320-176.73 0-320-143.27-320-320 0-140.876 91.030-260.484 217.476-303.222l-73.924-172.486c-159.594 68.488-271.386 227.034-271.386 411.708 0 247.332 200.502 459.834 447.834 459.834s447.834-212.502 447.834-459.834c0-184.674-111.792-343.22-271.386-411.708z" />
<glyph unicode="&#xe91d;" glyph-name="newspaper" d="M896 704v128h-896v-704c0-35.346 28.654-64 64-64h864c53.022 0 96 42.978 96 96v544h-128zM832 128h-768v640h768v-640zM128 640h640v-64h-640zM512 512h256v-64h-256zM512 384h256v-64h-256zM512 256h192v-64h-192zM128 512h320v-320h-320z" />
<glyph unicode="&#xe91e;" glyph-name="headphones" d="M288 384h-64v-448h64c17.6 0 32 14.4 32 32v384c0 17.6-14.4 32-32 32zM736 384c-17.602 0-32-14.4-32-32v-384c0-17.6 14.398-32 32-32h64v448h-64zM1024 448c0 282.77-229.23 512-512 512s-512-229.23-512-512c0-61.412 10.83-120.29 30.656-174.848-19.478-33.206-30.656-71.87-30.656-113.152 0-112.846 83.448-206.188 192-221.716v443.418c-31.914-4.566-61.664-15.842-87.754-32.378-5.392 26.718-8.246 54.364-8.246 82.676 0 229.75 186.25 416 416 416s416-186.25 416-416c0-28.314-2.83-55.968-8.22-82.696-26.1 16.546-55.854 27.848-87.78 32.418v-443.44c108.548 15.532 192 108.874 192 221.714 0 41.274-11.178 79.934-30.648 113.138 19.828 54.566 30.648 113.452 30.648 174.866z" />
<glyph unicode="&#xe91f;" glyph-name="book" d="M896 832v-832h-672c-53.026 0-96 42.98-96 96s42.974 96 96 96h608v768h-640c-70.398 0-128-57.6-128-128v-768c0-70.4 57.602-128 128-128h768v896h-64zM224.056 128v0c-0.018-0.002-0.038 0-0.056 0-17.672 0-32-14.326-32-32s14.328-32 32-32c0.018 0 0.038 0.002 0.056 0.002v-0.002h607.89v64h-607.89z" />
<glyph unicode="&#xe920;" glyph-name="books" horiz-adv-x="1152" d="M224 832h-192c-17.6 0-32-14.4-32-32v-704c0-17.6 14.4-32 32-32h192c17.6 0 32 14.4 32 32v704c0 17.6-14.4 32-32 32zM192 640h-128v64h128v-64zM544 832h-192c-17.6 0-32-14.4-32-32v-704c0-17.6 14.4-32 32-32h192c17.6 0 32 14.4 32 32v704c0 17.6-14.4 32-32 32zM512 640h-128v64h128v-64zM765.088 782.52l-171.464-86.394c-15.716-7.918-22.096-27.258-14.178-42.976l287.978-571.548c7.918-15.718 27.258-22.098 42.976-14.178l171.464 86.392c15.716 7.92 22.096 27.26 14.178 42.974l-287.978 571.55c-7.92 15.718-27.26 22.1-42.976 14.18z" />
<glyph unicode="&#xe921;" glyph-name="music" d="M960 960h64v-736c0-88.366-100.29-160-224-160s-224 71.634-224 160c0 88.368 100.29 160 224 160 62.684 0 119.342-18.4 160-48.040v368.040l-512-113.778v-494.222c0-88.366-100.288-160-224-160s-224 71.634-224 160c0 88.368 100.288 160 224 160 62.684 0 119.342-18.4 160-48.040v624.040l576 128z" />
<glyph unicode="&#xe922;" glyph-name="play" d="M981.188 799.892c-143.632 20.65-302.332 32.108-469.186 32.108-166.86 0-325.556-11.458-469.194-32.108-27.53-107.726-42.808-226.75-42.808-351.892 0-125.14 15.278-244.166 42.808-351.89 143.638-20.652 302.336-32.11 469.194-32.11 166.854 0 325.552 11.458 469.186 32.11 27.532 107.724 42.812 226.75 42.812 351.89 0 125.142-15.28 244.166-42.812 351.892zM384.002 256v384l320-192-320-192z" />
<glyph unicode="&#xe923;" glyph-name="film" d="M0 832v-768h1024v768h-1024zM192 128h-128v128h128v-128zM192 384h-128v128h128v-128zM192 640h-128v128h128v-128zM768 128h-512v640h512v-640zM960 128h-128v128h128v-128zM960 384h-128v128h128v-128zM960 640h-128v128h128v-128zM384 640v-384l256 192z" />
<glyph unicode="&#xe924;" glyph-name="file-empty" d="M917.806 730.924c-22.212 30.292-53.174 65.7-87.178 99.704s-69.412 64.964-99.704 87.178c-51.574 37.82-76.592 42.194-90.924 42.194h-496c-44.112 0-80-35.888-80-80v-864c0-44.112 35.888-80 80-80h736c44.112 0 80 35.888 80 80v624c0 14.332-4.372 39.35-42.194 90.924zM785.374 785.374c30.7-30.7 54.8-58.398 72.58-81.374h-153.954v153.946c22.984-17.78 50.678-41.878 81.374-72.572zM896 16c0-8.672-7.328-16-16-16h-736c-8.672 0-16 7.328-16 16v864c0 8.672 7.328 16 16 16 0 0 495.956 0.002 496 0v-224c0-17.672 14.326-32 32-32h224v-624z" />
<glyph unicode="&#xe925;" glyph-name="dice" d="M864 768h-512c-88 0-160-72-160-160v-512c0-88 72-160 160-160h512c88 0 160 72 160 160v512c0 88-72 160-160 160zM416 64c-53.020 0-96 42.98-96 96s42.98 96 96 96 96-42.98 96-96-42.98-96-96-96zM416 448c-53.020 0-96 42.98-96 96s42.98 96 96 96 96-42.98 96-96-42.98-96-96-96zM608 256c-53.020 0-96 42.98-96 96s42.98 96 96 96 96-42.98 96-96-42.98-96-96-96zM800 64c-53.020 0-96 42.98-96 96s42.98 96 96 96 96-42.98 96-96-42.98-96-96-96zM800 448c-53.020 0-96 42.98-96 96s42.98 96 96 96 96-42.98 96-96-42.98-96-96-96zM828.76 832c-14.93 72.804-79.71 128-156.76 128h-512c-88 0-160-72-160-160v-512c0-77.046 55.196-141.83 128-156.76v636.76c0 35.2 28.8 64 64 64h636.76z" />
<glyph unicode="&#xe926;" glyph-name="file-text2" d="M917.806 730.924c-22.212 30.292-53.174 65.7-87.178 99.704s-69.412 64.964-99.704 87.178c-51.574 37.82-76.592 42.194-90.924 42.194h-496c-44.112 0-80-35.888-80-80v-864c0-44.112 35.888-80 80-80h736c44.112 0 80 35.888 80 80v624c0 14.332-4.372 39.35-42.194 90.924zM785.374 785.374c30.7-30.7 54.8-58.398 72.58-81.374h-153.954v153.946c22.984-17.78 50.678-41.878 81.374-72.572zM896 16c0-8.672-7.328-16-16-16h-736c-8.672 0-16 7.328-16 16v864c0 8.672 7.328 16 16 16 0 0 495.956 0.002 496 0v-224c0-17.672 14.326-32 32-32h224v-624zM736 128h-448c-17.672 0-32 14.326-32 32s14.328 32 32 32h448c17.674 0 32-14.326 32-32s-14.326-32-32-32zM736 256h-448c-17.672 0-32 14.326-32 32s14.328 32 32 32h448c17.674 0 32-14.326 32-32s-14.326-32-32-32zM736 384h-448c-17.672 0-32 14.326-32 32s14.328 32 32 32h448c17.674 0 32-14.326 32-32s-14.326-32-32-32z" />
<glyph unicode="&#xe927;" glyph-name="spades" d="M817.57 611.85c-193.566 143.858-260.266 259.018-305.566 348.148v0c-0.004 0-0.004 0.002-0.004 0.002v-0.002c-45.296-89.13-112-204.292-305.566-348.148-330.036-245.286-19.376-587.668 253.758-399.224-17.796-116.93-78.53-202.172-140.208-238.882v-37.744h384.032v37.74c-61.682 36.708-122.41 121.954-140.212 238.884 273.136-188.446 583.8 153.94 253.766 399.226z" />
<glyph unicode="&#xe928;" glyph-name="clubs" d="M786.832 567.228c-59.032 0-112.086-24.596-149.852-64.694-15.996-16.984-43.762-37.112-73.8-54.81 14.11 53.868 58.676 121.7 89.628 151.456 39.64 38.17 63.984 91.83 63.984 151.5 0.006 114.894-91.476 208.096-204.788 209.32-113.32-1.222-204.796-94.426-204.796-209.318 0-59.672 24.344-113.33 63.986-151.5 30.954-29.756 75.52-97.588 89.628-151.456-30.042 17.7-57.806 37.826-73.8 54.81-37.768 40.098-90.82 64.694-149.85 64.694-114.386 0-207.080-93.664-207.080-209.328 0-115.638 92.692-209.338 207.080-209.338 59.042 0 112.082 25.356 149.85 65.452 16.804 17.872 46.444 40.138 78.292 58.632-3.002-147.692-73.532-256.168-145.318-298.906v-37.742h384.014v37.74c-71.792 42.736-142.32 151.216-145.32 298.906 31.852-18.494 61.488-40.768 78.292-58.632 37.766-40.094 90.808-65.452 149.852-65.452 114.386 0 207.078 93.7 207.078 209.338-0.002 115.664-92.692 209.328-207.080 209.328z" />
<glyph unicode="&#xe929;" glyph-name="library" horiz-adv-x="1088" d="M1024 0v64h-64v384h64v64h-192v-64h64v-384h-192v384h64v64h-192v-64h64v-384h-192v384h64v64h-192v-64h64v-384h-192v384h64v64h-192v-64h64v-384h-64v-64h-64v-64h1088v64h-64zM512 960h64l512-320v-64h-1088v64l512 320z" />
<glyph unicode="&#xe92a;" glyph-name="paint-format" d="M1024 384v384h-192v64c0 35.2-28.8 64-64 64h-704c-35.2 0-64-28.8-64-64v-192c0-35.2 28.8-64 64-64h704c35.2 0 64 28.8 64 64v64h128v-256h-576v-128h-32c-17.674 0-32-14.326-32-32v-320c0-17.674 14.326-32 32-32h128c17.674 0 32 14.326 32 32v320c0 17.674-14.326 32-32 32h-32v64h576zM768 768h-704v64h704v-64z" />
<glyph unicode="&#xe92b;" glyph-name="file-text" d="M864 960h-768c-52.8 0-96-43.2-96-96v-832c0-52.8 43.2-96 96-96h768c52.8 0 96 43.2 96 96v832c0 52.8-43.2 96-96 96zM832 64h-704v768h704v-768zM256 512h448v-64h-448zM256 384h448v-64h-448zM256 256h448v-64h-448zM256 640h448v-64h-448z" />
<glyph unicode="&#xe92c;" glyph-name="copy" d="M640 704v256h-448l-192-192v-576h384v-256h640v768h-384zM192 869.49v-101.49h-101.49l101.49 101.49zM64 256v448h192v192h320v-192l-192-192v-256h-320zM576 613.49v-101.49h-101.49l101.49 101.49zM960 0h-512v448h192v192h320v-640z" />
<glyph unicode="&#xe92d;" glyph-name="paste" d="M704 832h-128v64c0 35.2-28.8 64-64 64h-128c-35.204 0-64-28.8-64-64v-64h-128v-128h512v128zM512 832h-128v63.886c0.034 0.038 0.072 0.078 0.114 0.114h127.768c0.042-0.036 0.082-0.076 0.118-0.114v-63.886zM832 640v160c0 17.6-14.4 32-32 32h-64v-64h32v-128h-192l-192-192v-256h-256v576h32v64h-64c-17.602 0-32-14.4-32-32v-640c0-17.6 14.398-32 32-32h288v-192h640v704h-192zM576 549.49v-101.49h-101.49l101.49 101.49zM960 0h-512v384h192v192h320v-576z" />
<glyph unicode="&#xe92e;" glyph-name="profile" d="M864 960h-768c-52.8 0-96-43.2-96-96v-832c0-52.8 43.2-96 96-96h768c52.8 0 96 43.2 96 96v832c0 52.8-43.2 96-96 96zM832 64h-704v768h704v-768zM256 384h448v-64h-448zM256 256h448v-64h-448zM320 672c0 53.019 42.981 96 96 96s96-42.981 96-96c0-53.019-42.981-96-96-96s-96 42.981-96 96zM480 576h-128c-52.8 0-96-28.8-96-64v-64h320v64c0 35.2-43.2 64-96 64z" />
<glyph unicode="&#xe92f;" glyph-name="folder" d="M448 832l128-128h448v-704h-1024v832z" />
<glyph unicode="&#xe930;" glyph-name="folder-open" d="M832 0l192 512h-832l-192-512zM128 576l-128-576v832h288l128-128h416v-128z" />
<glyph unicode="&#xe931;" glyph-name="files-empty" d="M917.806 602.924c-22.21 30.292-53.174 65.7-87.178 99.704s-69.412 64.964-99.704 87.178c-51.574 37.82-76.592 42.194-90.924 42.194h-368c-44.114 0-80-35.888-80-80v-736c0-44.112 35.886-80 80-80h608c44.112 0 80 35.888 80 80v496c0 14.332-4.372 39.35-42.194 90.924zM785.374 657.374c30.7-30.7 54.8-58.398 72.58-81.374h-153.954v153.946c22.982-17.78 50.678-41.878 81.374-72.572v0zM896 16c0-8.672-7.328-16-16-16h-608c-8.672 0-16 7.328-16 16v736c0 8.672 7.328 16 16 16 0 0 367.956 0.002 368 0v-224c0-17.672 14.324-32 32-32h224v-496zM602.924 917.804c-51.574 37.822-76.592 42.196-90.924 42.196h-368c-44.112 0-80-35.888-80-80v-736c0-38.632 27.528-70.958 64-78.39v814.39c0 8.672 7.328 16 16 16h486.876c-9.646 7.92-19.028 15.26-27.952 21.804z" />
<glyph unicode="&#xe932;" glyph-name="stack" d="M1024 640l-512 256-512-256 512-256 512 256zM512 811.030l342.058-171.030-342.058-171.030-342.058 171.030 342.058 171.030zM921.444 499.278l102.556-51.278-512-256-512 256 102.556 51.278 409.444-204.722zM921.444 307.278l102.556-51.278-512-256-512 256 102.556 51.278 409.444-204.722z" />
<glyph unicode="&#xe933;" glyph-name="send" horiz-adv-x="1086" d="M80.479 925.825l912.558-480.423-912.558-480.33 37.274 415.554 636.766 39.182v49.673l-639.119 48.353z" />
<glyph unicode="&#xe934;" glyph-name="star-1" horiz-adv-x="1086" d="M540.562 942.107l-197.036-290.406-324.649-87.822 215.315-277.132-16.782-335.908 330.108 119.142 314.262-119.77-11.284 350.767 211.012 261.87-337.065 97.67zM539.496 821.819l142.629-218.448 264.639-76.663-163.69-203.159 8.851-275.364-243.786 92.894-259.179-93.535 13.021 260.57-169.007 217.59 251.82 68.141zM656.501 171.791h-233.113v43.963h89.659v288.651h-89.659v39.334q18.222 0 39.046 2.892 20.824 3.181 31.525 8.966 13.305 7.231 20.824 18.222 7.809 11.28 8.966 30.079h44.83v-388.144h87.924z" />
<glyph unicode="&#xe935;" glyph-name="price-tag" d="M976 960h-384c-26.4 0-63.274-15.274-81.942-33.942l-476.116-476.116c-18.668-18.668-18.668-49.214 0-67.882l412.118-412.118c18.668-18.668 49.214-18.668 67.882 0l476.118 476.118c18.666 18.666 33.94 55.54 33.94 81.94v384c0 26.4-21.6 48-48 48zM736 576c-53.020 0-96 42.98-96 96s42.98 96 96 96 96-42.98 96-96-42.98-96-96-96z" />
<glyph unicode="&#xe936;" glyph-name="star-2" horiz-adv-x="1086" d="M540.562 942.132l-197.036-290.406-324.649-87.847 215.315-277.119-16.782-335.908 330.108 119.142 314.262-119.745-11.287 350.741 210.986 261.896-337.052 97.643zM539.496 821.843l142.629-218.474 264.613-76.659-163.664-203.159 8.851-275.364-243.786 92.894-259.179-93.535 13.021 260.57-169.033 217.59 251.846 68.138zM688.001 166.512h-286.558v59.414q29.849 25.585 59.698 51.17 30.134 25.585 56.002 50.885 54.581 52.876 74.765 83.863 20.183 31.27 20.183 67.374 0 32.976-21.889 51.455-21.606 18.762-60.551 18.762-25.87 0-56.002-9.097t-58.846-27.859h-2.843v59.698q20.183 9.95 53.729 18.194 33.829 8.244 65.384 8.244 65.1 0 102.055-31.555 36.957-31.27 36.957-84.999 0-24.164-6.254-45.2-5.97-20.753-17.91-39.515-11.087-17.625-26.153-34.682-14.783-17.057-36.104-37.809-30.417-29.849-62.825-57.993-32.408-27.859-60.551-51.738h227.704z" />
<glyph unicode="&#xe937;" glyph-name="barcode" d="M0 832h128v-640h-128zM192 832h64v-640h-64zM320 832h64v-640h-64zM512 832h64v-640h-64zM768 832h64v-640h-64zM960 832h64v-640h-64zM640 832h32v-640h-32zM448 832h32v-640h-32zM864 832h32v-640h-32zM0 128h64v-64h-64zM192 128h64v-64h-64zM320 128h64v-64h-64zM640 128h64v-64h-64zM960 128h64v-64h-64zM768 128h128v-64h-128zM448 128h128v-64h-128z" />
<glyph unicode="&#xe938;" glyph-name="qrcode" d="M320 896h-256v-256h256v256zM384 960v0-384h-384v384h384zM128 832h128v-128h-128zM960 896h-256v-256h256v256zM1024 960v0-384h-384v384h384zM768 832h128v-128h-128zM320 256h-256v-256h256v256zM384 320v0-384h-384v384h384zM128 192h128v-128h-128zM448 960h64v-64h-64zM512 896h64v-64h-64zM448 832h64v-64h-64zM512 768h64v-64h-64zM448 704h64v-64h-64zM512 640h64v-64h-64zM448 576h64v-64h-64zM448 448h64v-64h-64zM512 384h64v-64h-64zM448 320h64v-64h-64zM512 256h64v-64h-64zM448 192h64v-64h-64zM512 128h64v-64h-64zM448 64h64v-64h-64zM512 0h64v-64h-64zM960 448h64v-64h-64zM64 448h64v-64h-64zM128 512h64v-64h-64zM0 512h64v-64h-64zM256 512h64v-64h-64zM320 448h64v-64h-64zM384 512h64v-64h-64zM576 448h64v-64h-64zM640 512h64v-64h-64zM704 448h64v-64h-64zM768 512h64v-64h-64zM832 448h64v-64h-64zM896 512h64v-64h-64zM960 320h64v-64h-64zM576 320h64v-64h-64zM640 384h64v-64h-64zM704 320h64v-64h-64zM832 320h64v-64h-64zM896 384h64v-64h-64zM960 192h64v-64h-64zM576 192h64v-64h-64zM640 256h64v-64h-64zM768 256h64v-64h-64zM832 192h64v-64h-64zM896 256h64v-64h-64zM960 64h64v-64h-64zM640 128h64v-64h-64zM704 64h64v-64h-64zM768 128h64v-64h-64zM832 64h64v-64h-64zM640 0h64v-64h-64zM768 0h64v-64h-64zM896 0h64v-64h-64z" />
<glyph unicode="&#xe939;" glyph-name="star-3" horiz-adv-x="1086" d="M540.562 942.132l-197.036-290.406-324.649-87.847 215.315-277.119-16.782-335.908 330.108 119.142 314.262-119.745-11.287 350.741 210.986 261.896-337.052 97.643zM539.496 821.843l142.629-218.474 264.613-76.659-163.664-203.159 8.851-275.364-243.786 92.894-259.179-93.535 13.021 260.57-169.033 217.59 251.846 68.138zM640.991 371.063q13.372-11.98 22.009-30.088t8.637-46.805q0-28.417-10.308-52.098t-28.974-41.232q-20.894-19.502-49.312-28.974-28.138-9.194-61.849-9.194-34.546 0-67.977 8.358-33.432 8.079-54.883 17.83v58.227h4.179q23.68-15.602 55.719-25.91t61.849-10.308q17.552 0 37.332 5.85t32.039 17.273q12.816 12.258 18.944 27.024 6.408 14.766 6.408 37.332 0 22.288-7.244 36.775-6.965 14.766-19.502 23.124-12.537 8.637-30.367 11.701-17.83 3.343-38.446 3.343h-25.074v46.247h19.502q42.347 0 67.421 17.552 25.352 17.83 25.352 51.819 0 15.044-6.408 26.188-6.408 11.423-17.83 18.666-11.98 7.244-25.631 10.030t-30.924 2.786q-26.466 0-56.277-9.472t-56.277-26.746h-2.786v58.227q19.78 9.751 52.655 17.83 33.153 8.358 64.077 8.358 30.367 0 53.491-5.572t41.79-17.83q20.059-13.372 30.367-32.317t10.308-44.297q0-34.546-24.516-60.455-24.238-25.631-57.391-32.317v-3.9q13.372-2.229 30.646-9.472 17.273-6.965 29.252-17.552z" />
<glyph unicode="&#xe93a;" glyph-name="cart" d="M384 32c0-53.019-42.981-96-96-96s-96 42.981-96 96c0 53.019 42.981 96 96 96s96-42.981 96-96zM1024 32c0-53.019-42.981-96-96-96s-96 42.981-96 96c0 53.019 42.981 96 96 96s96-42.981 96-96zM1024 448v384h-768c0 35.346-28.654 64-64 64h-192v-64h128l48.074-412.054c-29.294-23.458-48.074-59.5-48.074-99.946 0-70.696 57.308-128 128-128h768v64h-768c-35.346 0-64 28.654-64 64 0 0.218 0.014 0.436 0.016 0.656l831.984 127.344z" />
<glyph unicode="&#xe93b;" glyph-name="coin-dollar" d="M480 896c-265.096 0-480-214.904-480-480 0-265.098 214.904-480 480-480 265.098 0 480 214.902 480 480 0 265.096-214.902 480-480 480zM480 32c-212.078 0-384 171.922-384 384s171.922 384 384 384c212.078 0 384-171.922 384-384s-171.922-384-384-384zM512 448v128h128v64h-128v64h-64v-64h-128v-256h128v-128h-128v-64h128v-64h64v64h128.002l-0.002 256h-128zM448 448h-64v128h64v-128zM576.002 256h-64.002v128h64.002v-128z" />
<glyph unicode="&#xe93c;" glyph-name="star-4" horiz-adv-x="1086" d="M540.562 942.132l-197.036-290.406-324.649-87.847 215.315-277.119-16.782-335.908 330.108 119.142 314.262-119.745-11.287 350.741 210.986 261.896-337.052 97.643zM539.496 821.843l142.629-218.474 264.613-76.659-163.664-203.159 8.851-275.364-243.786 92.894-259.179-93.535 13.021 260.57-169.033 217.59 251.846 68.138zM676.821 295.14h-64.133v-121.591h-55.718v121.591h-206.903v66.745l209.231 243.76h53.396v-264.080h64.133zM556.97 341.571v195.008l-167.447-195.008z" />
<glyph unicode="&#xe93d;" glyph-name="star-5" horiz-adv-x="1086" d="M540.562 942.132l-197.036-290.406-324.649-87.847 215.315-277.119-16.782-335.908 330.108 119.142 314.262-119.745-11.287 350.741 210.986 261.896-337.052 97.643zM539.496 821.843l142.629-218.474 264.613-76.659-163.664-203.159 8.851-275.364-243.786 92.894-259.179-93.535 13.021 260.57-169.033 217.59 251.846 68.138zM666.836 295.985q0-29.565-10.803-56.572t-29.565-45.485q-20.468-19.9-48.896-30.702-28.144-10.518-65.384-10.518-34.682 0-66.806 7.391-32.123 7.107-54.297 17.341v59.983h3.98q23.311-14.783 54.581-25.3 31.27-10.234 61.404-10.234 20.183 0 38.946 5.686 19.047 5.686 33.829 19.9 12.508 12.224 18.762 29.281 6.538 17.057 6.538 39.515 0 21.889-7.676 36.957-7.391 15.066-20.753 24.164-14.783 10.803-36.104 15.066-21.036 4.548-47.191 4.548-25.017 0-48.327-3.411-23.027-3.411-39.799-6.823v218.045h254.719v-49.749h-199.844v-112.574q12.224 1.137 25.017 1.706t22.174 0.569q34.398 0 60.267-5.97 25.87-5.686 47.474-20.468 22.742-15.636 35.251-40.368t12.508-61.972z" />
<glyph unicode="&#xe93e;" glyph-name="flame-icon" horiz-adv-x="965" d="M548.664 712.283c-11.478 0-101.461-65.373-145.182-105.472-55.219-50.648-123.989-136.806-142.383-178.39-27.163-61.406-27.041-161.813 0.269-223.553 24.496-55.381 83.449-103.314 156.656-127.368 32.308-10.615 42.239-10.666 89.696-0.475 53.791 11.549 99.885 38.445 139.822 81.583 46.531 50.259 62.449 93.488 59.481 161.525-2.164 49.634-3.13 52.353-36.014 100.733-18.586 27.345-51.718 68.952-73.623 92.458-69.417 74.489-79.399 104.458-55.631 167.008 6.678 17.573 9.786 31.949 6.91 31.949zM508.556 661.268c2.996 0 4.354-11.506 3.013-25.569-3.578-37.526 1.583-51.166 41.414-109.322 52.488-76.641 64.776-129.101 42.984-183.559-9.997-24.986-27.62-37.236-41.352-28.751-3.844 2.374-5.452 10.193-3.574 17.377 3.55 13.576-5.452 36.264-17.608 44.381-3.859 2.578-17.991 4.733-31.412 4.786-24.637 0.098-47.968 17.22-65.632 48.17-6.196 10.857-8.177 7.515-15.038-25.324-21.002-100.529 19.857-181.815 91.66-182.346 21.324-0.159 24.040-1.429 14.686-6.871-20.443-11.895-75.97-13.172-100.066-2.3-33.406 15.071-49.517 33.215-64.091 72.158-29.108 77.8-22.077 168.334 18.475 237.779 21.749 37.245 114.474 139.392 126.54 139.392zM17.535-54.699c-9.644 1.463-17.535 4.32-17.535 6.347 0 2.029 20.086 23.735 44.633 48.233 24.548 24.5 44.633 45.27 44.633 46.156 0 0.884-6.456 3.412-14.347 5.617-14.262 3.983-14.244 4.071 3.188 14.973 16.71 10.451 23.013 20.729 12.753 20.798-2.63 0.019-12.808 6.473-22.617 14.346-17.824 14.308-17.83 14.335-9.114 48.302 4.796 18.693 12.821 36.68 17.835 39.975 7.664 5.034 7.225 7.431-2.753 15.057-9.995 7.64-11.826 17.745-11.604 64.049 0.147 30.238 3.407 58.763 7.248 63.395 5.144 6.199 4.814 9.247-1.257 11.577-10.367 3.977-8.771 81.083 2.099 101.395 5.988 11.188 5.549 15.261-2.256 20.968-7.529 5.506-10.499 26.921-13.334 96.149-4.175 101.98-11.127 142.743-25.737 150.921-11.999 6.715-13.454 21.494-2.766 28.099 4.114 2.542 17.743 6.79 30.288 9.439s35.453 9.486 50.907 15.195c15.454 5.709 34.105 9.522 41.447 8.472 12.013-1.716 13.379-6.235 13.644-45.152 0.27-39.905-0.837-43.53-14.348-46.92-19.941-5.004-18.386-10.835 5.271-19.765l19.913-7.517-16.724-19.876c-9.199-10.932-16.725-23.798-16.725-28.59s-5.681-12.693-12.625-17.556c-11.622-8.14-12.082-11.926-5.791-47.638 5.684-32.268 9.292-39.415 21.437-42.46 12.257-3.076 14.663-7.999 14.975-30.638 0.203-14.833-2.465-30.391-5.933-34.57-4.183-5.041-4.055-8.987 0.381-11.73 3.928-2.428 6.686-29.947 6.686-66.737 0-48.331-2.217-64.448-9.725-70.68-8.683-7.207-8.58-9.339 0.963-19.883 9.072-10.025 10.089-20.945 6.721-72.205-2.182-33.216-7.509-66.066-11.838-72.999-6.506-10.418-5.985-14.691 3.004-24.622 7.729-8.541 10.875-23.187 10.875-50.624 0-45.21-1.846-44.087 82.892-50.462 33.888-2.55 58.322-7.661 65.193-13.637 8.746-7.603 14.619-8.118 28.694-2.518 10.558 4.201 56.284 6.68 113.343 6.143 52.605-0.494 123.542 1.437 157.638 4.293 47.888 4.010 64.283 3.29 72.058-3.163 8.56-7.103 10.58-6.387 13.5 4.779 3.893 14.89 46.24 29.644 75.074 26.157l17.54-2.121-18.825-25.903c-10.354-14.247-28.374-30.526-40.040-36.177-19.167-9.283-23.040-9.332-40.122-0.499-15.884 8.214-23.073 8.517-44.968 1.891-14.404-4.357-76.83-9.192-139.534-10.808-98.116-2.527-115.648-1.494-129.578 7.631-14.744 9.661-18.566 9.716-45.142 0.66-15.968-5.441-31.033-8.658-33.474-7.149-6.275 3.878-132.872 4.926-201.199 1.665-31.563-1.506-65.282-1.545-74.925-0.082zM795.691 318.537c-1.793 369.697-2.122 378.402-15.351 406.494-26.498 56.246-73.752 85.261-155.289 95.341-30.011 3.711-175.287 6.681-326.787 6.681h-272.756v46.403c0 51.532 7.712 68.47 36.621 80.444 13.206 5.47 116.432 6.978 387.629 5.661 330.154-1.603 367.577-4.154 392.291-13.194 2.575-0.942 5.012-1.954 7.628-3.043 62.623-28.545 90.582-75.182 93.499-79.129s9.93-21.943 14.838-39.117 1.765-442.726 1.765-442.726l3.39-441.642h-165.648l-1.828 377.828zM955.073 379.113l-1.806 431.987c0 0 2.838 16.83-16.736 49.149s-51.212 57.364-93.77 77.231c-12.086 6.029-35.076 13.928-392.9 15.746-267.703 1.36-367.882-0.128-381.227-5.661-27.962-11.582-36.743-29.295-36.743-74.118v-40.028l272.59-0.049c301.388-0.053 361.367-4.127 407.662-27.685 36.273-18.463 52.902-35.344 73.176-74.287 0 0 10.599-11.341 12.769-24.898 2.168-13.557 3.956-381.596 3.956-381.596l1.787-377.8h153.072l-1.806 431.987-0.024 0.022zM417.65 77.498c-73.206 24.055-132.163 71.987-156.659 127.368-27.31 61.74-27.431 162.145-0.267 223.551 18.393 41.583 87.165 127.746 142.383 178.394 43.722 40.099 133.705 105.469 145.182 105.469 2.876 0-0.234-14.378-6.911-31.949-23.767-62.55-13.785-92.518 55.633-167.007 21.905-23.506 55.033-65.112 73.621-92.457 32.882-48.38 33.854-51.099 36.020-100.733 2.967-68.037-12.954-111.269-59.484-161.528-39.939-43.139-86.032-70.036-139.823-81.585-47.459-10.191-57.386-10.139-89.695 0.476zM561.119 103.949c84.303 39.903 134.475 111.499 139.175 198.597 2.196 40.684 0.416 50.169-14.964 79.706-21.259 40.826-44.292 71.215-96.675 127.54-64.218 69.053-76.889 105.686-56.513 163.43 5.105 14.468 7.817 26.306 6.025 26.306-1.79 0-21.026-12.067-42.747-26.817-77.864-52.877-188.772-170.972-222.315-236.719-32.793-64.279-34.679-157.743-4.596-227.671 16.525-38.413 70.062-90.246 115.524-111.849 48.701-23.139 118.636-20.189 177.085 7.477zM427.26 211.935c-33.406 15.071-49.522 33.216-64.093 72.159-29.11 77.8-22.074 168.337 18.478 237.782 21.749 37.247 114.473 139.386 126.538 139.386 2.996 0 4.351-11.504 3.011-25.567-3.58-37.527 1.586-51.163 41.417-109.319 52.488-76.64 64.772-129.103 42.981-183.56-9.998-24.986-27.62-37.241-41.35-28.755-3.844 2.376-5.451 10.198-3.572 17.383 3.55 13.576-5.451 36.264-17.607 44.382-3.859 2.576-17.997 4.728-31.418 4.782-24.638 0.098-47.966 17.22-65.631 48.17-6.196 10.857-8.179 7.518-15.039-25.321-21.002-100.529 19.861-181.821 91.664-182.351 21.324-0.159 24.037-1.428 14.683-6.87-20.443-11.895-75.967-13.172-100.063-2.3zM478.051 213.326c-0.098 2.63-10.020 11.956-22.050 20.723-12.81 9.335-27.603 29.098-35.702 47.695-11.74 26.958-13.3 39.474-10.329 82.892 1.923 28.127 8.619 65.487 14.881 83.023l11.384 31.882 3.962-23.362c7.681-45.299 33.937-69.095 76.241-69.095 22.47 0 44.684-25.787 44.684-51.871 0-35.424 20.467-18.162 32.701 27.583 12.183 45.549-0.537 90.324-43.459 152.999-39.458 57.617-52.883 85.795-53.263 111.793-0.245 16.663-3.060 14.803-46.374-30.622-56.777-59.545-84.228-109.277-94.434-171.088-12.010-72.732 8.084-154.774 46.396-189.421 21.951-19.849 75.847-36.394 75.362-23.131zM955.073 379.112c0 0 1.254 403.926-1.806 431.987s-6.141 32.88-18.702 54.485c-12.563 21.605-44.643 50.11-87.202 69.977-29.341 13.698-39.678 15.845-397.502 17.663-267.703 1.36-367.882-0.128-381.227-5.661-27.962-11.582-36.743-29.295-36.743-74.118v-40.028l272.59-0.049c301.39-0.053 361.368-4.127 407.662-27.684 36.273-18.463 52.902-35.344 73.176-74.287 0 0 9.908-33.372 12.828-47.192 2.922-13.82 3.897-359.302 3.897-359.302l1.787-377.801h153.072l-1.806 431.987-0.024 0.024z" />
<glyph unicode="&#xe93f;" glyph-name="users-add" horiz-adv-x="1303" d="M626.429 198.172c-255.207-46.402-371.211-185.607-371.211-255.207h706.836c-171.715 61.595-167.312 229.221-167.312 255.207-24.215 0-15.401-1.246-29.108 0 0 0-7.094 22.709 0 46.402s100.719 140.372 108.362 162.405c7.641 22.033 26.417 182.704 7.641 232.007-18.775 49.303-62.678 140.024-185.605 139.205s-176.281-76.232-185.607-139.205c-9.324-62.972-24.837-161.541 9.326-232.007 34.161-70.464 101.074-136.509 106.678-162.405s0-46.402 0-46.402zM464.013 656.766c12.712 93.495 92.802 121.423 139.204 144.624 0 52.495-17.211 113.459-66.059 139.204-59.098 31.146-154.294 20.011-189.148 0-63.665-36.551-86.036-113.149-88.237-139.204-2.203-26.056 1.179-205.625 48.431-266.741 47.255-61.114 63.006-68.245 63.006-104.47v-46.4c-278.408 0-371.211-260.628-371.211-260.628h324.809c46.402 69.602 232.007 116.002 232.007 116.002 6.76 42.328-80.090 145.996-92.802 191.026-12.712 45.032-12.712 133.090 0 226.587zM1303.275 182.881c0 132.526-107.434 239.96-239.96 239.96s-239.96-107.434-239.96-239.96c0-132.526 107.434-239.96 239.96-239.96s239.96 107.434 239.96 239.96zM1105.144 220.303h158.508v-79.254h-158.508v-158.498h-79.252v158.498h-162.907v79.254h162.907v162.915h79.252v-162.915z" />
<glyph unicode="&#xe940;" glyph-name="bell2" horiz-adv-x="1089" d="M522.434-57.886c-21.45 5.763-39.714 19.304-51.741 38.355-5.522 8.747-12.282 30.233-10.477 33.302 0.531 0.906 39.967 1.646 87.635 1.646h86.668l-1.391-8.231c-3.614-21.383-22.861-47.492-42.334-57.427-21.21-10.821-46.16-13.61-68.36-7.646v0.001zM0 59.466c0 15.236 5.47 30.527 17.315 48.408 13.92 21.014 22.341 29.841 66.774 69.998 104.071 94.055 124.864 139.484 133.12 290.79 5.509 101.008 7.090 124.527 10.112 150.347 5.943 50.816 13.289 82.188 28.776 122.915 38.633 101.595 100.438 149.193 208.131 160.288 25.905 2.669 29.631 4.593 29.631 15.293 0 3.154 2.564 10.881 5.699 17.172 6.136 12.316 16.374 19.933 32.685 24.318 13.010 3.499 32.301-2.418 43.104-13.221 7.662-7.663 9.254-11.25 14.463-32.606l1.863-7.64 29.734-3.656c109.796-13.5 167.832-59.739 206.978-164.903 21.814-58.61 28.349-102.917 35.372-239.772 1.859-36.216 4.362-74.736 5.562-85.601 11.685-105.793 36.817-150.424 134.609-239.046 58.713-53.207 75.615-76.657 77.661-107.746l1.012-15.364h-1082.589l-0.011 10.026z" />
<glyph unicode="&#xe941;" glyph-name="lifebuoy" d="M512 960c-282.77 0-512-229.23-512-512s229.23-512 512-512 512 229.23 512 512-229.23 512-512 512zM320 448c0 106.040 85.96 192 192 192s192-85.96 192-192-85.96-192-192-192-192 85.96-192 192zM925.98 276.524v0l-177.42 73.49c12.518 30.184 19.44 63.276 19.44 97.986s-6.922 67.802-19.44 97.986l177.42 73.49c21.908-52.822 34.020-110.73 34.020-171.476s-12.114-118.654-34.020-171.476v0zM683.478 861.98v0 0l-73.49-177.42c-30.184 12.518-63.276 19.44-97.988 19.44s-67.802-6.922-97.986-19.44l-73.49 177.422c52.822 21.904 110.732 34.018 171.476 34.018 60.746 0 118.654-12.114 171.478-34.020zM98.020 619.476l177.422-73.49c-12.518-30.184-19.442-63.276-19.442-97.986s6.922-67.802 19.44-97.986l-177.42-73.49c-21.906 52.822-34.020 110.73-34.020 171.476s12.114 118.654 34.020 171.476zM340.524 34.020l73.49 177.42c30.184-12.518 63.276-19.44 97.986-19.44s67.802 6.922 97.986 19.44l73.49-177.42c-52.822-21.904-110.73-34.020-171.476-34.020-60.744 0-118.654 12.114-171.476 34.020z" />
<glyph unicode="&#xe942;" glyph-name="phone" d="M704 320c-64-64-64-128-128-128s-128 64-192 128-128 128-128 192 64 64 128 128-128 256-192 256-192-192-192-192c0-128 131.5-387.5 256-512s384-256 512-256c0 0 192 128 192 192s-192 256-256 192z" />
<glyph unicode="&#xe943;" glyph-name="walk" horiz-adv-x="1086" d="M511.412 857.563c0-39.844-32.3-72.144-72.144-72.144s-72.144 32.3-72.144 72.144c0 39.844 32.3 72.144 72.144 72.144s72.144-32.3 72.144-72.144zM513.632 775.165c-34.528-3.733-125.359-26.697-134.152-183.295l-146.256-109.611 28.775-40.684 154.433 60.555 39.548 65.319s9.649-45.764 51.953-100.511c0 0-55.221-100.276-84.461-172.439l-63.346-291.68 84.461-23.284 70.385 262.182 58.067 70.793 149.571-347.049 67.895 54.121-130.512 406.696c38.571 71.543-34.676 213.729-34.676 213.729l55.062-7.661c-3.111-36.704 21.524-185.999 21.524-185.999l55.898-11.073-14.077 235.791c-96.428 41.060-195.554 107.851-230.083 104.119z" />
<glyph unicode="&#xe944;" glyph-name="address-book" d="M192 960v-1024h768v1024h-768zM576 703.67c70.51 0 127.67-57.16 127.67-127.67s-57.16-127.67-127.67-127.67-127.67 57.16-127.67 127.67 57.16 127.67 127.67 127.67v0zM768 192h-384v64c0 70.696 57.306 128 128 128v0h128c70.696 0 128-57.304 128-128v-64zM64 896h96v-192h-96v192zM64 640h96v-192h-96v192zM64 384h96v-192h-96v192zM64 128h96v-192h-96v192z" />
<glyph unicode="&#xe945;" glyph-name="envelope" d="M928 832h-832c-52.8 0-96-43.2-96-96v-640c0-52.8 43.2-96 96-96h832c52.8 0 96 43.2 96 96v640c0 52.8-43.2 96-96 96zM398.74 409.628l-270.74-210.892v501.642l270.74-290.75zM176.38 704h671.24l-335.62-252-335.62 252zM409.288 398.302l102.712-110.302 102.71 110.302 210.554-270.302h-626.528l210.552 270.302zM625.26 409.628l270.74 290.75v-501.642l-270.74 210.892z" />
<glyph unicode="&#xe946;" glyph-name="pushpin" d="M544 960l-96-96 96-96-224-256h-224l176-176-272-360.616v-39.384h39.384l360.616 272 176-176v224l256 224 96-96 96 96-480 480zM448 416l-64 64 224 224 64-64-224-224z" />
<glyph unicode="&#xe947;" glyph-name="location" d="M512 960c-176.732 0-320-143.268-320-320 0-320 320-704 320-704s320 384 320 704c0 176.732-143.27 320-320 320zM512 448c-106.040 0-192 85.96-192 192s85.96 192 192 192 192-85.96 192-192-85.96-192-192-192z" />
<glyph unicode="&#xe948;" glyph-name="location2" d="M512 960c-176.732 0-320-143.268-320-320 0-320 320-704 320-704s320 384 320 704c0 176.732-143.27 320-320 320zM512 444c-108.248 0-196 87.752-196 196s87.752 196 196 196 196-87.752 196-196-87.752-196-196-196zM388 640c0 68.483 55.517 124 124 124s124-55.517 124-124c0-68.483-55.517-124-124-124s-124 55.517-124 124z" />
<glyph unicode="&#xe949;" glyph-name="compass" d="M544.010-64.004c-2.296 0-4.622 0.25-6.94 0.764-14.648 3.25-25.070 16.238-25.070 31.24v480h-480c-15.002 0-27.992 10.422-31.24 25.070-3.25 14.646 4.114 29.584 17.708 35.928l960 448c12.196 5.688 26.644 3.144 36.16-6.372 9.516-9.514 12.060-23.966 6.372-36.16l-448-960c-5.342-11.44-16.772-18.47-28.99-18.47zM176.242 512h367.758c17.674 0 32-14.328 32-32v-367.758l349.79 749.546-749.548-349.788z" />
<glyph unicode="&#xe94a;" glyph-name="compass2" d="M512 960c-282.77 0-512-229.23-512-512s229.23-512 512-512 512 229.23 512 512-229.23 512-512 512zM96 448c0 229.75 186.25 416 416 416 109.574 0 209.232-42.386 283.534-111.628l-411.534-176.372-176.372-411.534c-69.242 74.302-111.628 173.96-111.628 283.534zM585.166 374.834l-256.082-109.75 109.75 256.082 146.332-146.332zM512 32c-109.574 0-209.234 42.386-283.532 111.628l411.532 176.372 176.372 411.532c69.242-74.298 111.628-173.958 111.628-283.532 0-229.75-186.25-416-416-416z" />
<glyph unicode="&#xe94b;" glyph-name="map" d="M0 768l320 128v-768l-320-128zM384 928l320-192v-736l-320 160zM768 736l256 192v-768l-256-192z" />
<glyph unicode="&#xe94c;" glyph-name="map2" d="M672 768l-320 128-352-128v-768l352 128 320-128 352 128v768l-352-128zM384 814.27l256-102.4v-630.138l-256 102.398v630.14zM64 723.172l256 93.090v-631.8l-256-93.088v631.798zM960 172.828l-256-93.092v631.8l256 93.090v-631.798z" />
<glyph unicode="&#xe94d;" glyph-name="classroom" horiz-adv-x="1086" d="M455.978-2.896c0 45.048 36.487 81.534 81.534 81.534h81.534c21.607 0 42.357-8.602 57.645-23.89s23.89-36.038 23.89-57.645v-40.767h-244.602zM782.115-2.896c0 45.048 36.487 81.534 81.534 81.534h81.534c21.607 0 42.357-8.602 57.645-23.89s23.89-36.038 23.89-57.645v-40.767h-244.602zM323.852 567.843c26.458 0 52.712 8.683 68.978 17.774 30.779 17.122 109.867 66.98 142.073 86.589 8.806 5.34 20.18 3.384 26.662-4.607l0.326-0.448c6.727-8.316 5.952-20.343-1.753-27.722-25.357-24.338-99.594-94.906-137.385-130.985-21.28-20.343-33.511-48.227-34.774-77.621-3.873-89.973-10.64-281.782-13.494-360.096-0.693-18.345-15.777-32.858-34.122-32.858h-0.041c-18.101 0-32.043 14.146-34.081 32.124-4.525 39.992-13.412 133.716-17.367 171.711-1.631 15.655-11.415 24.99-23.849 25.072-12.393 0.041-21.321-9.213-22.381-24.827-2.487-37.546-10.803-132.411-13.902-172.037-1.386-18.019-16.185-32.043-34.244-32.043h-0.041c-18.427 0-33.592 14.554-34.326 32.94-3.954 95.476-15.043 365.436-15.043 365.436l-52.467-94.987c-5.707-10.314-18.141-14.839-29.148-10.599h-0.041c-11.374 4.403-17.53 16.755-14.228 28.455l50.714 179.090c4.974 17.53 20.995 29.638 39.218 29.638zM578.279 282.473c50.633 0 91.726-41.093 91.726-91.726s-41.093-91.726-91.726-91.726-91.726 41.093-91.726 91.726 41.093 91.726 91.726 91.726zM904.416 282.473c50.633 0 91.726-41.093 91.726-91.726s-41.093-91.726-91.726-91.726-91.726 41.093-91.726 91.726 41.093 91.726 91.726 91.726zM1026.717 323.24h-570.739v81.534h285.369v40.767h122.301v-40.767h81.534v448.438h-815.341v-177.581l-81.534-81.534v340.65h978.41zM741.348 527.076h-122.301v40.767h122.301zM267.39 771.678c50.592 0 91.726-41.093 91.726-91.726s-41.134-91.726-91.726-91.726c-50.633 0-91.726 41.093-91.726 91.726s41.093 91.726 91.726 91.726zM863.649 608.61h-244.602v40.767h244.602zM863.649 690.144h-244.602v40.767h244.602z" />
<glyph unicode="&#xe94e;" glyph-name="clock" d="M658.744 210.744l-210.744 210.746v282.51h128v-229.49l173.256-173.254zM512 960c-282.77 0-512-229.23-512-512s229.23-512 512-512 512 229.23 512 512-229.23 512-512 512zM512 64c-212.078 0-384 171.922-384 384s171.922 384 384 384c212.078 0 384-171.922 384-384s-171.922-384-384-384z" />
<glyph unicode="&#xe94f;" glyph-name="ideas" horiz-adv-x="1086" d="M536.635 944.441c-198.652-0.004-359.695-161.039-359.695-359.695 0-164.028 101.971-245.285 120.742-259.546 36.633-27.838 62.762-77.47 66.349-115.325 0 0 46.034-14.701 96.475-26.067 16.293 178.072 48.721 324.276 90.651 383.429-40.238-30.18-67.908-115.613-67.908-115.613s-80.315 31.45-66.067 104.603c14.248 73.153 148.745 226.542 278.458 226.501-51.060-10.138-70.721-88.687-52.47-131.818 27.126-64.096 36.379-98.735 26.356-141.48s-85.956-91.171-124.791-71.571c-26.908-45.553-0.531-256.141-3.070-266.674-0.179-0.038-0.346-0.070-0.524-0.107 4.181-0.209 8.199-0.294 11.985-0.228 63.749 1.099 160.365 40.775 160.365 40.775-1.566 32.044 28.932 85.051 58.032 104.596 31.569 21.202 124.811 106.763 124.811 268.528 0 198.652-161.039 359.695-359.695 359.695h-0.007zM370.251 175.246c57.787-15.446 114.361-27.569 172.15-27.197 58.271 0.375 117.756 13.368 176.020 27.197v-85.71c-111.529-48.882-228.525-38.78-348.17 0zM722.361 58.278c0-39.080-33.677-75.193-88.346-94.733-54.668-19.541-122.021-19.541-176.692 0-54.668 19.541-88.346 55.652-88.346 94.733 0 0 91.457-23.66 176.31-24.857 84.847-1.197 177.075 24.857 177.075 24.857z" />
<glyph unicode="&#xe950;" glyph-name="alarm" d="M512 832c-247.424 0-448-200.576-448-448s200.576-448 448-448 448 200.576 448 448-200.576 448-448 448zM512 24c-198.824 0-360 161.178-360 360 0 198.824 161.176 360 360 360 198.822 0 360-161.176 360-360 0-198.822-161.178-360-360-360zM934.784 672.826c16.042 28.052 25.216 60.542 25.216 95.174 0 106.040-85.96 192-192 192-61.818 0-116.802-29.222-151.92-74.596 131.884-27.236 245.206-105.198 318.704-212.578v0zM407.92 885.404c-35.116 45.374-90.102 74.596-151.92 74.596-106.040 0-192-85.96-192-192 0-34.632 9.174-67.122 25.216-95.174 73.5 107.38 186.822 185.342 318.704 212.578zM512 384v256h-64v-320h256v64z" />
<glyph unicode="&#xe951;" glyph-name="bell" d="M1025.5 160c0 288-256 224-256 448 0 18.56-1.788 34.42-5.048 47.928-16.83 113.018-92.156 203.72-189.772 231.36 0.866 3.948 1.32 8.032 1.32 12.21 0 33.278-28.8 60.502-64 60.502s-64-27.224-64-60.5c0-4.18 0.456-8.264 1.32-12.21-109.47-30.998-190.914-141.298-193.254-273.442-0.040-1.92-0.066-3.864-0.066-5.846 0-224.002-256-160.002-256-448.002 0-76.226 170.59-139.996 398.97-156.080 21.524-40.404 64.056-67.92 113.030-67.92s91.508 27.516 113.030 67.92c228.38 16.084 398.97 79.854 398.97 156.080 0 0.228-0.026 0.456-0.028 0.682l1.528-0.682zM826.246 105.904c-54.23-14.47-118.158-24.876-186.768-30.648-5.704 65.418-60.582 116.744-127.478 116.744s-121.774-51.326-127.478-116.744c-68.608 5.772-132.538 16.178-186.768 30.648-74.63 19.914-110.31 42.19-123.368 54.096 13.058 11.906 48.738 34.182 123.368 54.096 86.772 23.152 198.372 35.904 314.246 35.904s227.474-12.752 314.246-35.904c74.63-19.914 110.31-42.19 123.368-54.096-13.058-11.906-48.738-34.182-123.368-54.096z" />
<glyph unicode="&#xe952;" glyph-name="stopwatch" d="M512.002 766.788v65.212h128v64c0 35.346-28.654 64-64.002 64h-191.998c-35.346 0-64-28.654-64-64v-64h128v-65.212c-214.798-16.338-384-195.802-384-414.788 0-229.75 186.25-416 416-416s416 186.25 416 416c0 218.984-169.202 398.448-384 414.788zM706.276 125.726c-60.442-60.44-140.798-93.726-226.274-93.726s-165.834 33.286-226.274 93.726c-60.44 60.44-93.726 140.8-93.726 226.274s33.286 165.834 93.726 226.274c58.040 58.038 134.448 91.018 216.114 93.548l-21.678-314.020c-1.86-26.29 12.464-37.802 31.836-37.802s33.698 11.512 31.836 37.802l-21.676 314.022c81.666-2.532 158.076-35.512 216.116-93.55 60.44-60.44 93.726-140.8 93.726-226.274s-33.286-165.834-93.726-226.274z" />
<glyph unicode="&#xe953;" glyph-name="calendar" d="M320 576h128v-128h-128zM512 576h128v-128h-128zM704 576h128v-128h-128zM128 192h128v-128h-128zM320 192h128v-128h-128zM512 192h128v-128h-128zM320 384h128v-128h-128zM512 384h128v-128h-128zM704 384h128v-128h-128zM128 384h128v-128h-128zM832 960v-64h-128v64h-448v-64h-128v64h-128v-1024h960v1024h-128zM896 0h-832v704h832v-704z" />
<glyph unicode="&#xe954;" glyph-name="video-on" horiz-adv-x="1086" d="M134.192 734.844c-62.647 0-113.079-67.859-113.079-152.145v-259.062c0-84.289 50.432-152.145 113.079-152.145h542.798c62.647 0 113.086 67.859 113.086 152.145v17.647c88.856-57.408 198.817-104.574 233.451-84.897 61.205 34.769 63.601 378.433 2.889 414.054-34.596 20.298-146.464-26.106-236.428-82.794-1.935 81.972-51.581 147.192-112.993 147.192z" />
<glyph unicode="&#xe955;" glyph-name="keyboard" horiz-adv-x="1152" d="M1088 832h-1024c-35.2 0-64-28.8-64-64v-640c0-35.2 28.8-64 64-64h1024c35.2 0 64 28.8 64 64v640c0 35.2-28.8 64-64 64zM640 704h128v-128h-128v128zM832 512v-128h-128v128h128zM448 704h128v-128h-128v128zM640 512v-128h-128v128h128zM256 704h128v-128h-128v128zM448 512v-128h-128v128h128zM128 704h64v-128h-64v128zM128 512h128v-128h-128v128zM192 192h-64v128h64v-128zM768 192h-512v128h512v-128zM1024 192h-192v128h192v-128zM1024 384h-128v128h128v-128zM1024 576h-192v128h192v-128z" />
<glyph unicode="&#xe956;" glyph-name="video-off" horiz-adv-x="1086" d="M284.823 674.997c171.667-123.558 343.327-247.118 514.99-370.667 0.101 2.491 0.166 4.997 0.166 7.523v15.586c78.471-50.7 175.579-92.354 206.169-74.978 54.054 30.706 56.168 334.214 2.551 365.685-30.554 17.925-129.348-23.057-208.803-73.119-1.709 72.393-45.554 129.995-99.79 129.995zM131.073 599.943c-6.515-17.874-10.187-37.996-10.187-59.318v-228.779c0-74.44 44.54-134.366 99.866-134.366h479.358c5.324 0 10.545 0.568 15.64 1.638-194.893 140.277-389.774 280.555-584.677 420.82zM113.743 743.060l828.781-583.575c15.694-11.051 19.432-32.713 8.348-48.384l-3.237-4.577c-11.083-15.671-32.791-19.416-48.485-8.366l-828.781 583.575c-15.694 11.051-19.432 32.713-8.348 48.384l3.237 4.577c11.083 15.671 32.791 19.416 48.485 8.366z" />
<glyph unicode="&#xe957;" glyph-name="mic-on" horiz-adv-x="1086" d="M544.705 936.289c-1.066 0.028-2.321 0.043-3.579 0.043-28.003 0-54.239-7.814-76.775-21.446l0.718 0.401c-43.044-26.053-72.294-72.239-75.637-125.713l-0.023-0.463h-1.31v-381.946h1.055c2.261-55.32 31.896-103.004 75.197-129.207l0.717-0.401c21.819-13.232 48.056-21.047 76.061-21.047s54.242 7.815 76.779 21.448l-0.718-0.401c43.95 26.643 73.519 74.32 75.732 129.293l0.010 0.315h0.316v381.95h-0.484c-3.347 53.921-32.564 100.104-74.86 125.775l-0.714 0.401c-20.804 12.617-45.701 20.33-72.289 20.998l-0.192 0.004zM333.093 498.929l-60.498-0.907c1.851-52.442-31.705-310.768 240.147-358.419l0.907-122.774-121.883 3.608 1.807-62.283 153.469-0.853 143.997 0.853 1.807 62.283-121.876-3.608 0.894 122.774c271.855 47.647 238.297 305.977 240.147 358.419l-60.484 0.907c23.201-219.781-85.742-290.512-209.224-300.311-123.482 9.797-232.418 80.527-209.217 300.311z" />
<glyph unicode="&#xe958;" glyph-name="mic-off" horiz-adv-x="1086" d="M528.89 946.831c-1.066 0.028-2.321 0.043-3.579 0.043-28.003 0-54.239-7.814-76.775-21.446l0.718 0.401c-43.044-26.053-72.294-72.239-75.637-125.713l-0.023-0.463h-1.31v-93.443c101.716-58.874 203.432-117.752 305.148-176.629v270.073h-0.484c-3.347 53.921-32.564 100.104-74.86 125.775l-0.714 0.401c-20.804 12.617-45.701 20.33-72.289 20.998l-0.192 0.004zM372.283 529.903v-112.179h1.055c2.261-55.32 31.896-103.004 75.197-129.207l0.717-0.401c21.819-13.232 48.056-21.047 76.061-21.047s54.242 7.815 76.779 21.448l-0.718-0.401c27.824 16.929 49.54 41.898 62.469 71.807l0.385 0.998-291.946 168.983zM317.282 509.466l-60.498-0.907c1.851-52.442-31.705-310.768 240.147-358.419l0.907-122.774-121.883 3.608 1.807-62.283 153.47-0.853 143.997 0.853 1.807 62.283-121.876-3.608 0.894 122.774c120.455 21.113 180.922 83.592 211.106 151.193l-50.299 29.117c-35.556-82.601-109.865-114.911-190.368-121.298-123.482 9.797-232.418 80.527-209.217 300.311zM735.723 509.466c0.516-4.887 0.883-9.61 1.27-14.35 19.883-11.509 39.767-23.016 59.652-34.524 0.087 21.31-0.781 38.215-0.437 47.967l-60.484 0.907zM181.006 771.869c253.523-147.946 507.359-295.385 760.7-443.63 30.322-19.635 17.743-71.922-18.085-75.833-27.266-2.856-47.767 19.364-70.947 30.217-239.236 139.613-478.784 278.731-717.837 418.643-30.322 19.635-17.743 71.922 18.085 75.833 9.594 1.6 19.698-0.299 28.079-5.231z" />
<glyph unicode="&#xe959;" glyph-name="gaming" horiz-adv-x="1086" d="M327.678 724.169c-13.429 0.166-28.052-2.098-44.534-7.598-105.492-35.202-190.369-137.632-220.92-280.73-30.548-143.098-36.667-276.781 75.976-319.897s190.961 139.703 258.327 170.821c23.275 10.751 148.436 9.136 148.436 9.136s125.177 1.615 148.45-9.136c67.363-31.118 145.677-213.938 258.32-170.821s106.523 176.8 75.976 319.897-115.422 245.528-220.914 280.73c-105.492 35.202-134.884-62.134-261.832-80.953-107.112 15.877-144.766 87.653-217.285 88.551zM828.048 569.899c10.203 0.361 20.556-3.673 26.852-12.254 4.58-5.74 7.133-13.054 7.115-20.396 0.808-21.278-22.437-38.373-42.504-31.34-20.552 5.52-30.060 32.768-17.387 49.868 5.674 9.005 15.722 13.76 25.925 14.122zM249.081 555.636c16.937 0.539 31.309-15.628 29.513-32.334-0.026-11.98 0.004-23.961 0.013-35.941 14.224-0.016 28.439-0.053 42.659-0.161 14.726-1.219 26.788-14.585 26.496-29.365 0.539-16.937-15.628-31.309-32.334-29.513-12.272 0.027-24.549-0.003-36.822-0.013-0.013-15.105-0.047-30.206-0.161-45.307-1.2-17.985-21.162-31.081-38.16-25.166-13.659 3.888-22.205 18.287-20.719 32.133 0.027 12.778-0.002 25.562-0.013 38.339-14.811 0.014-29.619 0.056-44.427 0.168-17.985 1.2-31.081 21.162-25.166 38.16 3.888 13.659 18.287 22.205 32.133 20.719 12.486-0.027 24.973-0.004 37.462 0.007 0.017 13.931 0.055 27.859 0.161 41.785 1.219 14.726 14.585 26.782 29.365 26.49zM904.134 495.38c10.203 0.361 20.562-3.679 26.859-12.26 4.58-5.74 7.126-13.047 7.108-20.389 0.808-21.278-22.437-38.38-42.504-31.347-20.552 5.52-30.060 32.768-17.387 49.868 5.674 9.005 15.722 13.767 25.925 14.128zM751.477 493.922c10.203 0.361 20.562-3.673 26.859-12.254 4.58-5.74 7.126-13.054 7.108-20.396 0.808-21.278-22.437-38.38-42.504-31.347-20.552 5.52-30.060 32.775-17.387 49.875 5.674 9.005 15.722 13.76 25.925 14.122zM827.776 415.635c10.203 0.361 20.562-3.673 26.859-12.254 4.58-5.74 7.126-13.054 7.108-20.396 0.808-21.278-22.437-38.38-42.504-31.347-20.552 5.52-30.060 32.775-17.387 49.875 5.674 9.005 15.722 13.76 25.925 14.122z" />
<glyph unicode="&#xe95a;" glyph-name="video2-off" horiz-adv-x="1086" d="M549.627 951.448c-277.924 0-503.225-225.302-503.225-503.225v0c0-277.924 225.302-503.225 503.225-503.225v0c277.924 0 503.225 225.302 503.225 503.225v0c0 277.924-225.302 503.225-503.225 503.225v0zM549.627 909.219c254.615 0 461.020-206.406 461.020-461.020v0c0-254.615-206.406-461.020-461.020-461.020v0c-254.615 0-461.020 206.406-461.020 461.020v0c0 254.615 206.406 461.020 461.020 461.020v0zM352.825 618.538c134.923-97.111 269.841-194.225 404.762-291.329 0.080 1.958 0.131 3.928 0.131 5.913v12.25c61.675-39.848 137.998-72.586 162.041-58.93 42.484 24.133 44.146 262.678 2.005 287.413-24.014 14.089-101.662-18.122-164.111-57.468-1.343 56.898-35.804 102.17-78.431 102.17zM231.984 559.549c-5.121-14.048-8.007-29.863-8.007-46.622v-179.811c0-58.507 35.006-105.606 78.491-105.606h376.756c4.185 0 8.288 0.446 12.292 1.287-153.178 110.252-306.347 220.505-459.532 330.747zM218.363 672.033l651.388-458.666c12.335-8.685 15.272-25.711 6.561-38.028l-2.544-3.598c-8.711-12.317-25.772-15.261-38.107-6.575l-651.388 458.666c-12.335 8.685-15.272 25.711-6.561 38.028l2.544 3.598c8.711 12.317 25.772 15.261 38.107 6.575z" />
<glyph unicode="&#xe95b;" glyph-name="video2-on" horiz-adv-x="1086" d="M246.464 648.988c-46.611 0-84.134-50.489-84.134-113.201v-192.746c0-62.713 37.522-113.201 84.134-113.201h403.862c46.611 0 84.139 50.489 84.139 113.201v13.129c66.112-42.713 147.92-77.806 173.7-63.166 45.538 25.868 47.321 281.566 2.149 308.074-25.74 15.103-108.973-19.424-175.91-61.6-1.44 60.989-38.378 109.515-84.071 109.515zM544.54 952.364c-277.933 0-503.243-225.305-503.251-503.237v-0.001c0-277.938 225.313-503.251 503.251-503.251v0c277.938 0 503.251 225.313 503.251 503.251v0c-0.008 277.932-225.318 503.238-503.251 503.238v0zM544.54 910.133c254.61 0 461.012-206.402 461.012-461.012v0c0-254.61-206.402-461.012-461.012-461.012v0c-254.61 0-461.012 206.402-461.012 461.012v0c0 254.61 206.402 461.012 461.012 461.012v0z" />
<glyph unicode="&#xe95c;" glyph-name="mic2-off" horiz-adv-x="1086" d="M544.267 855.585c-0.882 0.023-1.921 0.036-2.962 0.036-23.177 0-44.891-6.467-63.543-17.75l0.594 0.332c-35.625-21.562-59.834-59.789-62.601-104.046l-0.019-0.383h-1.084v-77.338c84.185-48.727 168.37-97.457 252.555-146.187v223.526h-0.4c-2.77 44.628-26.952 82.851-61.958 104.098l-0.591 0.332c-17.219 10.443-37.825 16.826-59.83 17.379l-0.159 0.003zM414.651 510.515v-92.845h0.873c1.872-45.786 26.399-85.252 62.237-106.938l0.594-0.332c18.058-10.951 39.774-17.419 62.952-17.419s44.893 6.468 63.546 17.752l-0.594-0.332c23.028 14.011 41.002 34.677 51.702 59.431l0.319 0.826-241.629 139.859zM369.13 493.6l-50.071-0.751c1.532-43.404-26.24-257.207 198.758-296.645l0.751-101.614-100.876 2.986 1.496-51.548 127.019-0.706 119.179 0.706 1.496 51.548-100.871-2.986 0.74 101.614c99.695 17.474 149.74 69.185 174.722 125.135l-41.63 24.098c-29.428-68.365-90.929-95.106-157.558-100.392-102.2 8.108-192.361 66.648-173.159 248.553zM715.453 493.6c0.427-4.045 0.731-7.953 1.051-11.877 16.456-9.525 32.913-19.049 49.371-28.574 0.072 17.637-0.646 31.629-0.361 39.7l-50.060 0.751zM256.342 710.778c209.829-122.448 419.916-244.475 629.594-367.171 25.096-16.251 14.685-59.526-14.968-62.764-22.567-2.364-39.534 16.027-58.719 25.009-198.004 115.55-396.265 230.692-594.118 346.49-25.096 16.251-14.685 59.526 14.968 62.764 7.941 1.324 16.303-0.248 23.239-4.329zM542.655 953.711c-277.933 0-503.243-225.305-503.251-503.237v-0.001c0-277.938 225.313-503.251 503.251-503.251v0c277.938 0 503.251 225.313 503.251 503.251v0c-0.008 277.932-225.318 503.238-503.251 503.238v0zM542.655 911.48c254.61 0 461.012-206.402 461.012-461.012v0c0-254.61-206.402-461.012-461.012-461.012v0c-254.61 0-461.012 206.402-461.012 461.012v0c0 254.61 206.402 461.012 461.012 461.012v0z" />
<glyph unicode="&#xe95d;" glyph-name="mic2-on" horiz-adv-x="1086" d="M544.266 853.925c-0.871 0.023-1.897 0.036-2.927 0.036-22.898 0-44.35-6.389-62.777-17.536l0.587 0.328c-35.196-21.303-59.113-59.069-61.847-102.793l-0.019-0.379h-1.071v-312.31h0.862c1.849-45.234 26.081-84.225 61.487-105.65l0.587-0.328c17.841-10.819 39.294-17.21 62.193-17.21s44.353 6.39 62.78 17.538l-0.587-0.328c35.937 21.786 60.115 60.77 61.925 105.721l0.008 0.258h0.258v312.31h-0.396c-2.736 44.090-26.627 81.853-61.212 102.844l-0.584 0.328c-17.011 10.317-37.369 16.623-59.11 17.169l-0.157 0.003zM371.235 496.304l-49.468-0.742c1.514-42.881-25.924-254.109 196.364-293.072l0.742-100.39-99.661 2.95 1.478-50.928 125.489-0.698 117.743 0.698 1.478 50.928-99.656-2.95 0.731 100.39c222.29 38.96 194.85 250.191 196.364 293.072l-49.457 0.742c18.971-179.71-70.109-237.546-171.078-245.559-100.969 8.011-190.044 65.845-171.073 245.559zM544.709 950.052c-277.933 0-503.243-225.305-503.251-503.237v-0.001c0-277.938 225.313-503.251 503.251-503.251v0c277.938 0 503.251 225.313 503.251 503.251v0c-0.008 277.932-225.318 503.238-503.251 503.238v0zM544.709 907.821c254.61 0 461.012-206.402 461.012-461.012v0c0-254.61-206.402-461.012-461.012-461.012v0c-254.61 0-461.012 206.402-461.012 461.012v0c0 254.61 206.402 461.012 461.012 461.012v0z" />
<glyph unicode="&#xe95e;" glyph-name="phone1" d="M704 320c-64-64-64-128-128-128s-128 64-192 128-128 128-128 192 64 64 128 128-128 256-192 256-192-192-192-192c0-128 131.5-387.5 256-512s384-256 512-256c0 0 192 128 192 192s-192 256-256 192z" />
<glyph unicode="&#xe95f;" glyph-name="phone-hang-up" d="M1017.378 384.006c8.004-55.482 13.216-131.392-11.664-160.446-41.142-48.044-301.712-48.044-301.712 48.042 0 48.398 42.856 80.134 1.712 128.178-40.472 47.262-113.026 48.030-193.714 48.042-80.686-0.012-153.242-0.78-193.714-48.042-41.142-48.046 1.714-79.78 1.714-128.178 0-96.086-260.57-96.086-301.714-48.044-24.878 29.054-19.668 104.964-11.662 160.446 6.16 37.038 21.724 76.996 71.548 127.994 0 0.002 0.002 0.002 0.002 0.004 74.738 69.742 187.846 126.738 429.826 127.968v0.030c1.344 0 2.664-0.010 4-0.014 1.338 0.004 2.656 0.014 4 0.014v-0.028c241.98-1.23 355.088-58.226 429.826-127.968 0.002-0.002 0.002-0.004 0.002-0.004 49.824-50.996 65.39-90.954 71.55-127.994z" />
<glyph unicode="&#xe960;" glyph-name="refresh" d="M576 874.667c-240.171 0-435.712-189.269-446.933-426.667h-129.067l193.579-252.459 190.421 252.459h-126.933c11.093 166.485 149.675 298.667 318.933 298.667 176.469 0 320-143.531 320-320s-143.531-320-320-320c-101.589 0-192.085 47.744-250.709 121.771l-78.805-104.491c81.877-89.088 198.997-145.28 329.515-145.28 247.381 0 448 200.619 448 448s-200.619 448-448 448z" />
<glyph unicode="&#xe961;" glyph-name="refresh2" d="M657.408 21.333h-657.408v853.333h298.667c72.32-82.859 101.163-128 170.667-128h469.333v-199.808c-26.539 12.629-55.168 21.419-85.333 25.728v88.747h-384c-99.84 0-150.912 59.221-209.749 128h-174.251v-682.667h480.427c24.149-34.56 55.467-63.573 91.648-85.333zM753.707 391.211c17.152 8.789 36.352 14.123 56.96 14.123 62.080 0 113.92-44.459 125.483-103.168l83.627 16.981c-19.456 97.749-105.6 171.52-209.109 171.52-40.832 0-78.72-11.861-111.104-31.787l-59.563 74.453-42.667-213.333h213.333l-56.96 71.211zM981.333 21.333l-59.563 74.453c-32.384-19.925-70.272-31.787-111.104-31.787-103.509 0-189.653 73.771-209.109 171.52l83.627 16.981c11.563-58.709 63.403-103.168 125.483-103.168 20.608 0 39.808 5.333 56.96 14.123l-56.96 71.211h213.333l-42.667-213.333z" />
<glyph unicode="&#xe962;" glyph-name="floppy-disk" d="M896 960h-896v-1024h1024v896l-128 128zM512 832h128v-256h-128v256zM896 64h-768v768h64v-320h576v320h74.978l53.022-53.018v-714.982z" />
<glyph unicode="&#xe964;" glyph-name="database" d="M512 960c-282.77 0-512-71.634-512-160v-128c0-88.366 229.23-160 512-160s512 71.634 512 160v128c0 88.366-229.23 160-512 160zM512 416c-282.77 0-512 71.634-512 160v-192c0-88.366 229.23-160 512-160s512 71.634 512 160v192c0-88.366-229.23-160-512-160zM512 128c-282.77 0-512 71.634-512 160v-192c0-88.366 229.23-160 512-160s512 71.634 512 160v192c0-88.366-229.23-160-512-160z" />
<glyph unicode="&#xe967;" glyph-name="undo2" d="M761.862-64c113.726 206.032 132.888 520.306-313.862 509.824v-253.824l-384 384 384 384v-248.372c534.962 13.942 594.57-472.214 313.862-775.628z" />
<glyph unicode="&#xe968;" glyph-name="redo2" d="M576 711.628v248.372l384-384-384-384v253.824c-446.75 10.482-427.588-303.792-313.86-509.824-280.712 303.414-221.1 789.57 313.86 775.628z" />
<glyph unicode="&#xe969;" glyph-name="forward" d="M262.14 960c-113.728-206.032-132.89-520.304 313.86-509.824v253.824l384-384-384-384v248.372c-534.96-13.942-594.572 472.214-313.86 775.628z" />
<glyph unicode="&#xe96a;" glyph-name="reply" d="M448 184.372v-248.372l-384 384 384 384v-253.824c446.75-10.48 427.588 303.792 313.862 509.824 280.71-303.414 221.1-789.57-313.862-775.628z" />
<glyph unicode="&#xe96b;" glyph-name="bubble" d="M512 896c282.77 0 512-186.25 512-416 0-229.752-229.23-416-512-416-27.156 0-53.81 1.734-79.824 5.044-109.978-109.978-241.25-129.7-368.176-132.596v26.916c68.536 33.578 128 94.74 128 164.636 0 9.754-0.758 19.33-2.164 28.696-115.796 76.264-189.836 192.754-189.836 323.304 0 229.75 229.23 416 512 416z" />
<glyph unicode="&#xe96d;" glyph-name="bubbles2" horiz-adv-x="1152" d="M480 960v0c265.096 0 480-173.914 480-388.448s-214.904-388.448-480-388.448c-25.458 0-50.446 1.62-74.834 4.71-103.106-102.694-222.172-121.108-341.166-123.814v25.134c64.252 31.354 116 88.466 116 153.734 0 9.106-0.712 18.048-2.030 26.794-108.558 71.214-177.97 179.988-177.97 301.89 0 214.534 214.904 388.448 480 388.448zM996 89.314c0-55.942 36.314-104.898 92-131.772v-21.542c-103.126 2.318-197.786 18.102-287.142 106.126-21.14-2.65-42.794-4.040-64.858-4.040-95.47 0-183.408 25.758-253.614 69.040 144.674 0.506 281.26 46.854 384.834 130.672 52.208 42.252 93.394 91.826 122.414 147.348 30.766 58.866 46.366 121.582 46.366 186.406 0 10.448-0.45 20.836-1.258 31.168 72.57-59.934 117.258-141.622 117.258-231.676 0-104.488-60.158-197.722-154.24-258.764-1.142-7.496-1.76-15.16-1.76-22.966z" />
<glyph unicode="&#xe96e;" glyph-name="bubble2" d="M512 768c-54.932 0-107.988-8.662-157.694-25.742-46.712-16.054-88.306-38.744-123.628-67.444-66.214-53.798-102.678-122.984-102.678-194.814 0-40.298 11.188-79.378 33.252-116.152 22.752-37.92 56.982-72.586 98.988-100.252 30.356-19.992 50.78-51.948 56.176-87.894 1.8-11.984 2.928-24.088 3.37-36.124 7.47 6.194 14.75 12.846 21.88 19.976 24.154 24.152 56.78 37.49 90.502 37.49 5.368 0 10.762-0.336 16.156-1.024 20.974-2.666 42.398-4.020 63.676-4.020 54.934 0 107.988 8.66 157.694 25.742 46.712 16.054 88.306 38.744 123.628 67.444 66.214 53.796 102.678 122.984 102.678 194.814s-36.464 141.016-102.678 194.814c-35.322 28.698-76.916 51.39-123.628 67.444-49.706 17.080-102.76 25.742-157.694 25.742zM512 896v0c282.77 0 512-186.25 512-416 0-229.752-229.23-416-512-416-27.156 0-53.81 1.734-79.824 5.044-109.978-109.978-241.25-129.7-368.176-132.596v26.916c68.536 33.578 128 94.74 128 164.636 0 9.754-0.758 19.33-2.164 28.696-115.796 76.264-189.836 192.754-189.836 323.304 0 229.75 229.23 416 512 416z" />
<glyph unicode="&#xe971;" glyph-name="user" d="M576 253.388v52.78c70.498 39.728 128 138.772 128 237.832 0 159.058 0 288-192 288s-192-128.942-192-288c0-99.060 57.502-198.104 128-237.832v-52.78c-217.102-17.748-384-124.42-384-253.388h896c0 128.968-166.898 235.64-384 253.388z" />
<glyph unicode="&#xe972;" glyph-name="users" horiz-adv-x="1152" d="M768 189.388v52.78c70.498 39.728 128 138.772 128 237.832 0 159.058 0 288-192 288s-192-128.942-192-288c0-99.060 57.502-198.104 128-237.832v-52.78c-217.102-17.748-384-124.42-384-253.388h896c0 128.968-166.898 235.64-384 253.388zM327.196 164.672c55.31 36.15 124.080 63.636 199.788 80.414-15.054 17.784-28.708 37.622-40.492 59.020-30.414 55.234-46.492 116.058-46.492 175.894 0 86.042 0 167.31 30.6 233.762 29.706 64.504 83.128 104.496 159.222 119.488-16.914 76.48-61.94 126.75-181.822 126.75-192 0-192-128.942-192-288 0-99.060 57.502-198.104 128-237.832v-52.78c-217.102-17.748-384-124.42-384-253.388h279.006c14.518 12.91 30.596 25.172 48.19 36.672z" />
<glyph unicode="&#xe973;" glyph-name="user-plus" d="M384 224c0 151.234 95.874 280.486 230.032 330.2 16.28 36.538 25.968 77.164 25.968 117.8 0 159.058 0 288-192 288s-192-128.942-192-288c0-99.060 57.502-198.104 128-237.832v-52.78c-217.102-17.748-384-124.42-384-253.388h397.306c-8.664 30.53-13.306 62.732-13.306 96zM736 512c-159.058 0-288-128.942-288-288s128.942-288 288-288c159.056 0 288 128.942 288 288s-128.942 288-288 288zM896 192h-128v-128h-64v128h-128v64h128v128h64v-128h128v-64z" />
<glyph unicode="&#xe974;" glyph-name="user-minus" d="M384 224c0 151.234 95.874 280.486 230.032 330.2 16.28 36.538 25.968 77.164 25.968 117.8 0 159.058 0 288-192 288s-192-128.942-192-288c0-99.060 57.502-198.104 128-237.832v-52.78c-217.102-17.748-384-124.42-384-253.388h397.306c-8.664 30.53-13.306 62.732-13.306 96zM736 512c-159.058 0-288-128.942-288-288s128.942-288 288-288c159.056 0 288 128.942 288 288s-128.942 288-288 288zM896 192h-320v64h320v-64z" />
<glyph unicode="&#xe975;" glyph-name="user-check" d="M960 352l-288-288-96 96-64-64 160-160 352 352zM448 192h320v115.128c-67.22 39.2-156.308 66.11-256 74.26v52.78c70.498 39.728 128 138.772 128 237.832 0 159.058 0 288-192 288s-192-128.942-192-288c0-99.060 57.502-198.104 128-237.832v-52.78c-217.102-17.748-384-124.42-384-253.388h448v64z" />
<glyph unicode="&#xe976;" glyph-name="user-tie" d="M320 768c0 106.039 85.961 192 192 192s192-85.961 192-192c0-106.039-85.961-192-192-192s-192 85.961-192 192zM768.078 512h-35.424l-199.104-404.244 74.45 372.244-96 96-96-96 74.45-372.244-199.102 404.244h-35.424c-127.924 0-127.924-85.986-127.924-192v-320h768v320c0 106.014 0 192-127.922 192z" />
<glyph unicode="&#xe977;" glyph-name="quotes-left" d="M225 512c123.712 0 224-100.29 224-224 0-123.712-100.288-224-224-224s-224 100.288-224 224l-1 32c0 247.424 200.576 448 448 448v-128c-85.474 0-165.834-33.286-226.274-93.726-11.634-11.636-22.252-24.016-31.83-37.020 11.438 1.8 23.16 2.746 35.104 2.746zM801 512c123.71 0 224-100.29 224-224 0-123.712-100.29-224-224-224s-224 100.288-224 224l-1 32c0 247.424 200.576 448 448 448v-128c-85.474 0-165.834-33.286-226.274-93.726-11.636-11.636-22.254-24.016-31.832-37.020 11.44 1.8 23.16 2.746 35.106 2.746z" />
<glyph unicode="&#xe978;" glyph-name="quotes-right" d="M800 320c-123.712 0-224 100.29-224 224 0 123.712 100.288 224 224 224s224-100.288 224-224l1-32c0-247.424-200.576-448-448-448v128c85.474 0 165.834 33.286 226.274 93.726 11.634 11.636 22.252 24.016 31.83 37.020-11.438-1.8-23.16-2.746-35.104-2.746zM224 320c-123.71 0-224 100.29-224 224 0 123.712 100.29 224 224 224s224-100.288 224-224l1-32c0-247.424-200.576-448-448-448v128c85.474 0 165.834 33.286 226.274 93.726 11.636 11.636 22.254 24.016 31.832 37.020-11.44-1.8-23.16-2.746-35.106-2.746z" />
<glyph unicode="&#xe984;" glyph-name="spinner11" d="M1024 576h-384l143.53 143.53c-72.53 72.526-168.96 112.47-271.53 112.47s-199-39.944-271.53-112.47c-72.526-72.53-112.47-168.96-112.47-271.53s39.944-199 112.47-271.53c72.53-72.526 168.96-112.47 271.53-112.47s199 39.944 271.528 112.472c6.056 6.054 11.86 12.292 17.456 18.668l96.32-84.282c-93.846-107.166-231.664-174.858-385.304-174.858-282.77 0-512 229.23-512 512s229.23 512 512 512c141.386 0 269.368-57.326 362.016-149.984l149.984 149.984v-384z" />
<glyph unicode="&#xe986;" glyph-name="search" d="M992.262 88.604l-242.552 206.294c-25.074 22.566-51.89 32.926-73.552 31.926 57.256 67.068 91.842 154.078 91.842 249.176 0 212.078-171.922 384-384 384-212.076 0-384-171.922-384-384s171.922-384 384-384c95.098 0 182.108 34.586 249.176 91.844-1-21.662 9.36-48.478 31.926-73.552l206.294-242.552c35.322-39.246 93.022-42.554 128.22-7.356s31.892 92.898-7.354 128.22zM384 320c-141.384 0-256 114.616-256 256s114.616 256 256 256 256-114.616 256-256-114.614-256-256-256z" />
<glyph unicode="&#xe987;" glyph-name="zoom-in" d="M992.262 88.604l-242.552 206.294c-25.074 22.566-51.89 32.926-73.552 31.926 57.256 67.068 91.842 154.078 91.842 249.176 0 212.078-171.922 384-384 384-212.076 0-384-171.922-384-384s171.922-384 384-384c95.098 0 182.108 34.586 249.176 91.844-1-21.662 9.36-48.478 31.926-73.552l206.294-242.552c35.322-39.246 93.022-42.554 128.22-7.356s31.892 92.898-7.354 128.22zM384 320c-141.384 0-256 114.616-256 256s114.616 256 256 256 256-114.616 256-256-114.614-256-256-256zM448 768h-128v-128h-128v-128h128v-128h128v128h128v128h-128z" />
<glyph unicode="&#xe988;" glyph-name="zoom-out" d="M992.262 88.604l-242.552 206.294c-25.074 22.566-51.89 32.926-73.552 31.926 57.256 67.068 91.842 154.078 91.842 249.176 0 212.078-171.922 384-384 384-212.076 0-384-171.922-384-384s171.922-384 384-384c95.098 0 182.108 34.586 249.176 91.844-1-21.662 9.36-48.478 31.926-73.552l206.294-242.552c35.322-39.246 93.022-42.554 128.22-7.356s31.892 92.898-7.354 128.22zM384 320c-141.384 0-256 114.616-256 256s114.616 256 256 256 256-114.616 256-256-114.614-256-256-256zM192 640h384v-128h-384z" />
<glyph unicode="&#xe989;" glyph-name="enlarge" d="M1024 960h-416l160-160-192-192 96-96 192 192 160-160zM1024-64v416l-160-160-192 192-96-96 192-192-160-160zM0-64h416l-160 160 192 192-96 96-192-192-160 160zM0 960v-416l160 160 192-192 96 96-192 192 160 160z" />
<glyph unicode="&#xe98d;" glyph-name="key" d="M704 960c-176.73 0-320-143.268-320-320 0-20.026 1.858-39.616 5.376-58.624l-389.376-389.376v-192c0-35.346 28.654-64 64-64h64v64h128v128h128v128h128l83.042 83.042c34.010-12.316 70.696-19.042 108.958-19.042 176.73 0 320 143.268 320 320s-143.27 320-320 320zM799.874 639.874c-53.020 0-96 42.98-96 96s42.98 96 96 96 96-42.98 96-96-42.98-96-96-96z" />
<glyph unicode="&#xe98e;" glyph-name="key2" d="M1002.132 645.758l-101.106 101.104c-24.792 24.794-65.37 65.368-90.162 90.164l-101.106 101.104c-24.792 24.794-68.954 29.166-98.13 9.716l-276.438-184.292c-29.176-19.452-40.218-61.028-24.536-92.39l70.486-140.974c2.154-4.306 4.646-8.896 7.39-13.66l-356.53-356.53-32-224h192v64h128v128h128v128h128v71.186c6.396-3.812 12.534-7.216 18.192-10.044l140.97-70.488c31.366-15.682 72.94-4.638 92.39 24.538l184.294 276.44c19.454 29.172 15.078 73.33-9.714 98.126zM150.628 105.374l-45.254 45.254 311.572 311.57 45.254-45.254-311.572-311.57zM917.020 536.236l-45.256-45.256c-12.446-12.444-32.808-12.444-45.254 0l-271.53 271.53c-12.446 12.444-12.446 32.81 0 45.254l45.256 45.256c12.446 12.444 32.808 12.444 45.254 0l271.53-271.53c12.446-12.444 12.446-32.81 0-45.254z" />
<glyph unicode="&#xe98f;" glyph-name="lock" d="M592 512h-16v192c0 105.87-86.13 192-192 192h-128c-105.87 0-192-86.13-192-192v-192h-16c-26.4 0-48-21.6-48-48v-480c0-26.4 21.6-48 48-48h544c26.4 0 48 21.6 48 48v480c0 26.4-21.6 48-48 48zM192 704c0 35.29 28.71 64 64 64h128c35.29 0 64-28.71 64-64v-192h-256v192z" />
<glyph unicode="&#xe990;" glyph-name="unlocked" d="M768 896c105.87 0 192-86.13 192-192v-192h-128v192c0 35.29-28.71 64-64 64h-128c-35.29 0-64-28.71-64-64v-192h16c26.4 0 48-21.6 48-48v-480c0-26.4-21.6-48-48-48h-544c-26.4 0-48 21.6-48 48v480c0 26.4 21.6 48 48 48h400v192c0 105.87 86.13 192 192 192h128z" />
<glyph unicode="&#xe991;" glyph-name="wrench" d="M1002.934 142.124l-460.552 394.76c21.448 40.298 33.618 86.282 33.618 135.116 0 159.058-128.942 288-288 288-29.094 0-57.172-4.332-83.646-12.354l166.39-166.39c24.89-24.89 24.89-65.62 0-90.51l-101.49-101.49c-24.89-24.89-65.62-24.89-90.51 0l-166.39 166.39c-8.022-26.474-12.354-54.552-12.354-83.646 0-159.058 128.942-288 288-288 48.834 0 94.818 12.17 135.116 33.62l394.76-460.552c22.908-26.724 62.016-28.226 86.904-3.338l101.492 101.492c24.888 24.888 23.386 63.994-3.338 86.902z" />
<glyph unicode="&#xe994;" glyph-name="cog" d="M933.79 349.75c-53.726 93.054-21.416 212.304 72.152 266.488l-100.626 174.292c-28.75-16.854-62.176-26.518-97.846-26.518-107.536 0-194.708 87.746-194.708 195.99h-201.258c0.266-33.41-8.074-67.282-25.958-98.252-53.724-93.056-173.156-124.702-266.862-70.758l-100.624-174.292c28.97-16.472 54.050-40.588 71.886-71.478 53.638-92.908 21.512-211.92-71.708-266.224l100.626-174.292c28.65 16.696 61.916 26.254 97.4 26.254 107.196 0 194.144-87.192 194.7-194.958h201.254c-0.086 33.074 8.272 66.57 25.966 97.218 53.636 92.906 172.776 124.594 266.414 71.012l100.626 174.29c-28.78 16.466-53.692 40.498-71.434 71.228zM512 240.668c-114.508 0-207.336 92.824-207.336 207.334 0 114.508 92.826 207.334 207.336 207.334 114.508 0 207.332-92.826 207.332-207.334-0.002-114.51-92.824-207.334-207.332-207.334z" />
<glyph unicode="&#xe995;" glyph-name="cogs" d="M363.722 237.948l41.298 57.816-45.254 45.256-57.818-41.296c-10.722 5.994-22.204 10.774-34.266 14.192l-11.682 70.084h-64l-11.68-70.086c-12.062-3.418-23.544-8.198-34.266-14.192l-57.818 41.298-45.256-45.256 41.298-57.816c-5.994-10.72-10.774-22.206-14.192-34.266l-70.086-11.682v-64l70.086-11.682c3.418-12.060 8.198-23.544 14.192-34.266l-41.298-57.816 45.254-45.256 57.818 41.296c10.722-5.994 22.204-10.774 34.266-14.192l11.682-70.084h64l11.68 70.086c12.062 3.418 23.544 8.198 34.266 14.192l57.818-41.296 45.254 45.256-41.298 57.816c5.994 10.72 10.774 22.206 14.192 34.266l70.088 11.68v64l-70.086 11.682c-3.418 12.060-8.198 23.544-14.192 34.266zM224 96c-35.348 0-64 28.654-64 64s28.652 64 64 64 64-28.654 64-64-28.652-64-64-64zM1024 576v64l-67.382 12.25c-1.242 8.046-2.832 15.978-4.724 23.79l57.558 37.1-24.492 59.128-66.944-14.468c-4.214 6.91-8.726 13.62-13.492 20.13l39.006 56.342-45.256 45.254-56.342-39.006c-6.512 4.766-13.22 9.276-20.13 13.494l14.468 66.944-59.128 24.494-37.1-57.558c-7.812 1.892-15.744 3.482-23.79 4.724l-12.252 67.382h-64l-12.252-67.382c-8.046-1.242-15.976-2.832-23.79-4.724l-37.098 57.558-59.128-24.492 14.468-66.944c-6.91-4.216-13.62-8.728-20.13-13.494l-56.342 39.006-45.254-45.254 39.006-56.342c-4.766-6.51-9.278-13.22-13.494-20.13l-66.944 14.468-24.492-59.128 57.558-37.1c-1.892-7.812-3.482-15.742-4.724-23.79l-67.384-12.252v-64l67.382-12.25c1.242-8.046 2.832-15.978 4.724-23.79l-57.558-37.1 24.492-59.128 66.944 14.468c4.216-6.91 8.728-13.618 13.494-20.13l-39.006-56.342 45.254-45.256 56.342 39.006c6.51-4.766 13.22-9.276 20.13-13.492l-14.468-66.944 59.128-24.492 37.102 57.558c7.81-1.892 15.742-3.482 23.788-4.724l12.252-67.384h64l12.252 67.382c8.044 1.242 15.976 2.832 23.79 4.724l37.1-57.558 59.128 24.492-14.468 66.944c6.91 4.216 13.62 8.726 20.13 13.492l56.342-39.006 45.256 45.256-39.006 56.342c4.766 6.512 9.276 13.22 13.492 20.13l66.944-14.468 24.492 59.13-57.558 37.1c1.892 7.812 3.482 15.742 4.724 23.79l67.382 12.25zM672 468.8c-76.878 0-139.2 62.322-139.2 139.2s62.32 139.2 139.2 139.2 139.2-62.322 139.2-139.2c0-76.878-62.32-139.2-139.2-139.2z" />
<glyph unicode="&#xe999;" glyph-name="bug" d="M1024 384v64h-193.29c-5.862 72.686-31.786 139.026-71.67 192.25h161.944l70.060 280.24-62.090 15.522-57.94-231.76h-174.68c-0.892 0.694-1.796 1.374-2.698 2.056 6.71 19.502 10.362 40.422 10.362 62.194 0.002 105.76-85.958 191.498-191.998 191.498s-192-85.738-192-191.5c0-21.772 3.65-42.692 10.362-62.194-0.9-0.684-1.804-1.362-2.698-2.056h-174.68l-57.94 231.76-62.090-15.522 70.060-280.24h161.944c-39.884-53.222-65.806-119.562-71.668-192.248h-193.29v-64h193.37c3.802-45.664 15.508-88.812 33.638-127.75h-123.992l-70.060-280.238 62.090-15.524 57.94 231.762h112.354c58.692-78.032 147.396-127.75 246.66-127.75s187.966 49.718 246.662 127.75h112.354l57.94-231.762 62.090 15.524-70.060 280.238h-123.992c18.13 38.938 29.836 82.086 33.636 127.75h193.37z" />
<glyph unicode="&#xe99b;" glyph-name="stats-dots" d="M128 64h896v-128h-1024v1024h128zM288 128c-53.020 0-96 42.98-96 96s42.98 96 96 96c2.828 0 5.622-0.148 8.388-0.386l103.192 171.986c-9.84 15.070-15.58 33.062-15.58 52.402 0 53.020 42.98 96 96 96s96-42.98 96-96c0-19.342-5.74-37.332-15.58-52.402l103.192-171.986c2.766 0.238 5.56 0.386 8.388 0.386 2.136 0 4.248-0.094 6.35-0.23l170.356 298.122c-10.536 15.408-16.706 34.036-16.706 54.11 0 53.020 42.98 96 96 96s96-42.98 96-96c0-53.020-42.98-96-96-96-2.14 0-4.248 0.094-6.35 0.232l-170.356-298.124c10.536-15.406 16.706-34.036 16.706-54.11 0-53.020-42.98-96-96-96s-96 42.98-96 96c0 19.34 5.74 37.332 15.578 52.402l-103.19 171.984c-2.766-0.238-5.56-0.386-8.388-0.386s-5.622 0.146-8.388 0.386l-103.192-171.986c9.84-15.068 15.58-33.060 15.58-52.4 0-53.020-42.98-96-96-96z" />
<glyph unicode="&#xe99c;" glyph-name="stats-bars" d="M0 128h1024v-128h-1024zM128 384h128v-192h-128zM320 640h128v-448h-128zM512 448h128v-256h-128zM704 832h128v-640h-128z" />
<glyph unicode="&#xe99e;" glyph-name="trophy" d="M832 768v128h-640v-128h-192v-128c0-106.038 85.958-192 192-192 20.076 0 39.43 3.086 57.62 8.802 46.174-66.008 116.608-113.796 198.38-130.396v-198.406h-64c-70.694 0-128-57.306-128-128h512c0 70.694-57.306 128-128 128h-64v198.406c81.772 16.6 152.206 64.386 198.38 130.396 18.19-5.716 37.544-8.802 57.62-8.802 106.042 0 192 85.962 192 192v128h-192zM192 524c-63.962 0-116 52.038-116 116v64h116v-64c0-40.186 7.43-78.632 20.954-114.068-6.802-1.246-13.798-1.932-20.954-1.932zM948 640c0-63.962-52.038-116-116-116-7.156 0-14.152 0.686-20.954 1.932 13.524 35.436 20.954 73.882 20.954 114.068v64h116v-64z" />
<glyph unicode="&#xe99f;" glyph-name="gift" d="M771.516 640c18.126 12.88 35.512 27.216 51.444 43.148 33.402 33.402 55.746 74.5 62.912 115.722 7.858 45.186-3.672 87.14-31.63 115.1-22.3 22.298-52.51 34.086-87.364 34.086-49.632 0-101.922-23.824-143.46-65.362-66.476-66.476-105.226-158.238-126.076-223.722-15.44 65.802-46.206 154.644-106.018 214.458-32.094 32.092-73.114 48.57-111.846 48.57-31.654 0-61.78-11.004-84.26-33.486-49.986-49.988-43.232-137.786 15.086-196.104 20.792-20.792 45.098-38.062 70.72-52.412h-217.024v-256h64v-448h768v448.002h64v256h-188.484zM674.326 831.782c27.724 27.724 62.322 44.274 92.55 44.274 10.7 0 25.708-2.254 36.45-12.998 26.030-26.028 11.412-86.308-31.28-128.998-43.946-43.946-103.060-74.168-154.432-94.060h-50.672c18.568 57.548 52.058 136.456 107.384 191.782zM233.934 799.11c-0.702 9.12-0.050 26.248 12.196 38.494 10.244 10.244 23.788 12.396 33.348 12.396v0c21.258 0 43.468-10.016 60.932-27.48 33.872-33.872 61.766-87.772 80.668-155.876 0.51-1.84 1.008-3.67 1.496-5.486-1.816 0.486-3.646 0.984-5.486 1.496-68.104 18.904-122.002 46.798-155.874 80.67-15.828 15.826-25.77 36.16-27.28 55.786zM448 0h-256v416h256v-416zM448 448h-320v128h320v-128zM832 0h-256v416h256v-416zM896 448h-320v128h320v-128z" />
<glyph unicode="&#xe9a1;" glyph-name="glass2" d="M889.162 780.23c7.568 9.632 8.972 22.742 3.62 33.758-5.356 11.018-16.532 18.012-28.782 18.012h-704c-12.25 0-23.426-6.994-28.78-18.012-5.356-11.018-3.95-24.126 3.618-33.758l313.162-398.57v-381.66h-96c-17.672 0-32-14.326-32-32s14.328-32 32-32h320c17.674 0 32 14.326 32 32s-14.326 32-32 32h-96v381.66l313.162 398.57zM798.162 768l-100.572-128h-371.18l-100.57 128h572.322z" />
<glyph unicode="&#xe9a2;" glyph-name="mug" d="M960 640h-192v96c0 88.366-171.922 160-384 160s-384-71.634-384-160v-640c0-88.366 171.922-160 384-160s384 71.634 384 160v96h192c35.346 0 64 28.654 64 64v320c0 35.346-28.654 64-64 64zM176.056 701.602c-36.994 12.19-59.408 25.246-71.41 34.398 12.004 9.152 34.416 22.208 71.41 34.398 57.942 19.090 131.79 29.602 207.944 29.602s150.004-10.512 207.944-29.602c36.994-12.188 59.408-25.246 71.41-34.398-12.002-9.152-34.416-22.208-71.41-34.398-57.94-19.090-131.79-29.602-207.944-29.602s-150.002 10.512-207.944 29.602zM896 320h-128v192h128v-192z" />
<glyph unicode="&#xe9a3;" glyph-name="spoon-knife" d="M224 960c-106.040 0-192-100.288-192-224 0-105.924 63.022-194.666 147.706-217.998l-31.788-518.124c-2.154-35.132 24.882-63.878 60.082-63.878h32c35.2 0 62.236 28.746 60.082 63.878l-31.788 518.124c84.684 23.332 147.706 112.074 147.706 217.998 0 123.712-85.96 224-192 224zM869.334 960l-53.334-320h-40l-26.666 320h-26.668l-26.666-320h-40l-53.334 320h-26.666v-416c0-17.672 14.326-32 32-32h83.338l-31.42-512.122c-2.154-35.132 24.882-63.878 60.082-63.878h32c35.2 0 62.236 28.746 60.082 63.878l-31.42 512.122h83.338c17.674 0 32 14.328 32 32v416h-26.666z" />
<glyph unicode="&#xe9a5;" glyph-name="rocket" d="M704 896l-320-320h-192l-192-256c0 0 203.416 56.652 322.066 30.084l-322.066-414.084 421.902 328.144c58.838-134.654-37.902-328.144-37.902-328.144l256 192v192l320 320 64 320-320-64z" />
<glyph unicode="&#xe9a8;" glyph-name="hammer2" d="M1010.174 44.25l-548.634 499.458 25.534 25.598c20.894 20.954 32.188 48.030 33.918 75.61 1.002 0.45 2.002 0.912 2.958 1.442l102.99 64.402c13.934 16.392 12.916 42.268-2.284 57.502l-179.12 179.608c-15.19 15.234-40.998 16.262-57.344 2.284l-64.236-103.268c-0.526-0.966-0.99-1.966-1.44-2.974-27.502-1.736-54.5-13.056-75.398-34.006l-97.428-97.702c-20.898-20.956-32.184-48.026-33.918-75.604-1.004-0.45-2.004-0.916-2.964-1.446l-102.986-64.406c-13.942-16.39-12.916-42.264 2.276-57.496l179.12-179.604c15.194-15.238 40.996-16.262 57.35-2.286l64.228 103.27c0.528 0.958 0.988 1.96 1.442 2.966 27.502 1.738 54.504 13.050 75.398 34.004l28.292 28.372 498.122-550.114c14.436-15.944 36.7-18.518 49.474-5.712l50.356 50.488c12.764 12.808 10.196 35.132-5.706 49.614z" />
<glyph unicode="&#xe9a9;" glyph-name="fire" d="M321.008-64c-68.246 142.008-31.902 223.378 20.55 300.044 57.44 83.956 72.244 167.066 72.244 167.066s45.154-58.7 27.092-150.508c79.772 88.8 94.824 230.28 82.782 284.464 180.314-126.012 257.376-398.856 153.522-601.066 552.372 312.532 137.398 780.172 65.154 832.85 24.082-52.676 28.648-141.85-20-185.126-82.352 312.276-285.972 376.276-285.972 376.276 24.082-161.044-87.296-337.144-194.696-468.73-3.774 64.216-7.782 108.528-41.55 169.98-7.58-116.656-96.732-211.748-120.874-328.628-32.702-158.286 24.496-274.18 241.748-396.622z" />
<glyph unicode="&#xe9ac;" glyph-name="bin" d="M128 640v-640c0-35.2 28.8-64 64-64h576c35.2 0 64 28.8 64 64v640h-704zM320 64h-64v448h64v-448zM448 64h-64v448h64v-448zM576 64h-64v448h64v-448zM704 64h-64v448h64v-448zM848 832h-208v80c0 26.4-21.6 48-48 48h-224c-26.4 0-48-21.6-48-48v-80h-208c-26.4 0-48-21.6-48-48v-80h832v80c0 26.4-21.6 48-48 48zM576 832h-192v63.198h192v-63.198z" />
<glyph unicode="&#xe9ad;" glyph-name="bin2" d="M192-64h640l64 704h-768zM640 832v128h-256v-128h-320v-192l64 64h768l64-64v192h-320zM576 832h-128v64h128v-64z" />
</font>
</defs>
</svg>
